<svg xmlns="http://www.w3.org/2000/svg" width="106" height="75" viewBox="0 0 106 75"><path d="M11.9,47.7a3.3,3.3,0,0,0,.6,1,7,7,0,0,0,3.6,3.1l.8.3a20,20,0,0,0,5.6.7H43.8a10.1,10.1,0,0,1,2.4.3l1.4.5,1.2.5.6.4a7.4,7.4,0,0,1,3,3.3,11.1,11.1,0,0,1,.7,1.6l.4,1.3h.2l.3-1a4.9,4.9,0,0,1,.4-1.1,7.7,7.7,0,0,1,4.2-4.5l.7-.3,1-.3,1.2-.3,1.3-.2,2.2-.2H86.7a7.6,7.6,0,0,0,2.1-.3l1.7-.5.8-.4a9,9,0,0,0,4.3-5.1l.3-.8a15,15,0,0,1,0,3v.8l-.3,2c-.1.5-.3.9-.4,1.4s-.1.4-.2.5a7.8,7.8,0,0,1-4.6,4.5l-.8.3a26.1,26.1,0,0,1-5.7.8H61.6l-2.3.4-.9.3a7.2,7.2,0,0,0-3.6,3.3l-.5,1.1a7.5,7.5,0,0,0-.5,1.6l-.2.4a5.6,5.6,0,0,0-.4-1.2l-.2-.5c-1.3-2.6-3.8-4.9-6.7-5.3H22.2l-2.6-.2a7.3,7.3,0,0,1-2-.5,9.2,9.2,0,0,1-5.4-4.5,10.4,10.4,0,0,1-.8-2.5,43.5,43.5,0,0,1-.4-5.7h0a9.5,9.5,0,0,0,.9,2.1" fill="#00a6d9"/><path d="M18.7,15a2.9,2.9,0,0,1,2.9-3.1,2.8,2.8,0,0,1,2.9,3,2.9,2.9,0,0,1-2.9,3A2.8,2.8,0,0,1,18.7,15M15.9,44.6c2.9,0,3.7-.5,3.7-1.7V27.2c0-1.5-.7-2.5-3.6-2.5V23.1l7.8-.2v20c0,1.2.7,1.7,3.7,1.7v1.6H15.9Z"/><path d="M32.9,15a2.9,2.9,0,0,1,2.9-3.1,2.8,2.8,0,0,1,2.9,3,2.9,2.9,0,0,1-2.9,3A2.8,2.8,0,0,1,32.9,15M30.1,44.6c2.9,0,3.7-.5,3.7-1.7V27.2c0-1.5-.7-2.5-3.7-2.5V23.1l7.9-.2v20c0,1.2.7,1.7,3.7,1.7v1.6H30.1Z"/><path d="M47.6,32.4l10.9-.2c.5-4.3-1.4-8-5-8s-5.5,2.4-5.9,8.2M43,34.8c0-6.9,4.3-12.2,10.8-12.2s9.7,5.8,9.2,11.3H47.6v.3h0c0,5.6,2.7,9.6,7.7,9.6,2.8,0,5.1-1.8,7.1-4.3l1,1c-1.9,3.1-4.5,6-9.6,6-7,0-10.8-5.1-10.8-11.8"/><path d="M83,42V27.1a5.7,5.7,0,0,0-5.2-2.9c-3.6,0-6.7,3.7-6.7,10.5s2.6,9.5,7.1,9.5A7.1,7.1,0,0,0,83,42M66.4,35c0-7,4.4-12.4,11.2-12.4A9.7,9.7,0,0,1,83,24V16c0-1.5-.9-2.4-3.9-2.5V11.9l8.2-.2V42.9c0,1.2.7,1.7,3.6,1.8v1.5l-7.8.2V43.7a9,9,0,0,1-6.8,2.9c-6.2,0-9.9-5.1-9.9-11.6"/></svg>