<?xml version="1.0" encoding="utf-8"?>
<!-- Generator: Adobe Illustrator 27.7.0, SVG Export Plug-In . SVG Version: 6.00 Build 0)  -->
<svg version="1.1" id="Ebene_1" xmlns="http://www.w3.org/2000/svg" xmlns:xlink="http://www.w3.org/1999/xlink" x="0px" y="0px"
	 viewBox="0 0 46 39.9" style="enable-background:new 0 0 46 39.9;" xml:space="preserve">
<style type="text/css">
	.st0{fill:#FFFFFF;}
</style>
<path d="M44.6,39.6H1.6c-0.7,0-1.3-0.6-1.3-1.3V23.8c0-0.7,0.6-1.3,1.3-1.3h42.9c0.7,0,1.3,0.6,1.3,1.3v14.5
	C45.9,39,45.3,39.6,44.6,39.6z"/>
<g>
	<path class="st0" d="M4.2,27.2c0.4-0.1,0.7-0.3,1.1-0.5s0.8-0.4,1.1-0.6c0.4-0.2,0.7-0.5,1.1-0.7c0.3-0.3,0.6-0.5,0.9-0.8h1.9v12.9
		H7.6v-9.3c-0.4,0.2-0.8,0.5-1.2,0.7C5.9,29,5.4,29.2,5,29.4L4.2,27.2z"/>
	<path class="st0" d="M27.1,27.9c0,0.5-0.1,0.9-0.3,1.4c-0.2,0.4-0.4,0.9-0.7,1.3c-0.3,0.4-0.6,0.8-1,1.2c-0.4,0.4-0.7,0.7-1.1,1.1
		c-0.2,0.2-0.4,0.4-0.6,0.6c-0.2,0.2-0.4,0.4-0.6,0.7c-0.2,0.2-0.4,0.4-0.5,0.6C22.1,34.8,22,35,22,35.1h5.5v2.3h-8.6
		c0-0.1,0-0.3,0-0.5s0-0.4,0-0.4c0-0.6,0.1-1.1,0.3-1.6c0.2-0.5,0.4-1,0.8-1.4c0.3-0.4,0.7-0.8,1.1-1.2c0.4-0.4,0.8-0.7,1.2-1.1
		c0.3-0.3,0.6-0.6,0.8-0.8c0.3-0.3,0.5-0.5,0.7-0.7c0.2-0.2,0.4-0.5,0.5-0.7c0.1-0.2,0.2-0.5,0.2-0.7c0-0.5-0.2-0.9-0.5-1.2
		c-0.3-0.2-0.7-0.3-1.2-0.3c-0.3,0-0.6,0.1-0.9,0.2c-0.3,0.1-0.6,0.2-0.8,0.4c-0.2,0.1-0.4,0.3-0.6,0.4c-0.2,0.1-0.3,0.3-0.4,0.3
		L18.6,26c0.5-0.5,1.2-0.9,1.9-1.3s1.5-0.5,2.3-0.5c0.8,0,1.4,0.1,2,0.3c0.5,0.2,1,0.4,1.3,0.7c0.4,0.3,0.6,0.7,0.8,1.2
		C27,26.9,27.1,27.4,27.1,27.9z"/>
	<path class="st0" d="M37.2,37.7c-0.3,0-0.7,0-1.1-0.1s-0.7-0.1-1.1-0.2c-0.3-0.1-0.7-0.2-0.9-0.2s-0.5-0.2-0.7-0.2l0.5-2.3
		c0.3,0.1,0.7,0.3,1.2,0.4c0.5,0.2,1.1,0.2,1.9,0.2c0.9,0,1.5-0.2,1.9-0.5c0.4-0.3,0.6-0.8,0.6-1.3c0-0.3-0.1-0.6-0.2-0.8
		c-0.1-0.2-0.3-0.4-0.6-0.6c-0.2-0.1-0.5-0.2-0.9-0.3c-0.3-0.1-0.7-0.1-1.1-0.1h-1.1v-2.2h1.2c0.3,0,0.5,0,0.8-0.1
		c0.3-0.1,0.5-0.1,0.7-0.3c0.2-0.1,0.4-0.3,0.5-0.5C39,28.5,39,28.3,39,28c0-0.2-0.1-0.4-0.1-0.6c-0.1-0.2-0.2-0.3-0.4-0.4
		c-0.2-0.1-0.3-0.2-0.5-0.3s-0.4-0.1-0.6-0.1c-0.5,0-1,0.1-1.5,0.2c-0.5,0.2-0.9,0.4-1.2,0.6l-1-2c0.2-0.1,0.4-0.3,0.7-0.4
		c0.3-0.1,0.6-0.3,0.9-0.4c0.3-0.1,0.7-0.2,1-0.3c0.4-0.1,0.8-0.1,1.2-0.1c0.8,0,1.4,0.1,2,0.3s1,0.4,1.4,0.8
		c0.4,0.3,0.6,0.7,0.8,1.2c0.2,0.4,0.3,0.9,0.3,1.4c0,0.5-0.1,1-0.4,1.5c-0.3,0.5-0.7,0.8-1.2,1.1c0.7,0.3,1.2,0.7,1.6,1.2
		c0.4,0.5,0.5,1.2,0.5,1.9c0,0.6-0.1,1.1-0.3,1.6c-0.2,0.5-0.5,0.9-0.9,1.3c-0.4,0.4-1,0.7-1.6,0.9C38.8,37.6,38.1,37.7,37.2,37.7z"
		/>
</g>
<g>
	<path d="M10.4,14.1c-0.1-0.4-0.3-0.9-0.4-1.3c-0.2-0.5-0.3-0.9-0.5-1.3H4.7c-0.2,0.4-0.3,0.9-0.5,1.3c-0.2,0.5-0.3,0.9-0.4,1.3H0.9
		c0.5-1.3,0.9-2.6,1.3-3.7C2.6,9.3,3,8.3,3.4,7.3c0.4-1,0.8-1.9,1.2-2.8C5,3.5,5.4,2.7,5.8,1.8h2.6c0.4,0.9,0.8,1.7,1.2,2.6
		c0.4,0.9,0.8,1.8,1.2,2.8c0.4,1,0.8,2.1,1.2,3.2c0.4,1.1,0.9,2.4,1.3,3.7H10.4z M7.1,4.6C7,4.8,6.9,5,6.8,5.3
		C6.7,5.6,6.5,6,6.4,6.4C6.2,6.8,6.1,7.2,5.9,7.7c-0.2,0.5-0.4,1-0.6,1.5h3.5c-0.2-0.5-0.4-1-0.5-1.5C8.1,7.2,7.9,6.8,7.8,6.4
		C7.6,6,7.5,5.6,7.3,5.3C7.2,5,7.1,4.8,7.1,4.6z"/>
	<path d="M23.3,14.3c-0.7,0-1.3,0-2-0.1c-0.7,0-1.4-0.1-2.1-0.3V2c0.6-0.1,1.2-0.2,1.9-0.2c0.7-0.1,1.3-0.1,1.9-0.1
		c0.8,0,1.5,0.1,2.2,0.2c0.7,0.1,1.2,0.3,1.7,0.6s0.8,0.6,1.1,1.1c0.3,0.4,0.4,1,0.4,1.6c0,1-0.5,1.8-1.4,2.3
		c0.8,0.3,1.3,0.7,1.6,1.2c0.3,0.5,0.4,1.1,0.4,1.7c0,1.3-0.5,2.3-1.4,2.9C26.6,14,25.2,14.3,23.3,14.3z M21.9,6.6h1.3
		c0.9,0,1.5-0.1,1.8-0.3c0.4-0.2,0.5-0.6,0.5-1.1c0-0.5-0.2-0.8-0.6-1c-0.4-0.2-0.9-0.3-1.7-0.3c-0.2,0-0.5,0-0.8,0
		c-0.3,0-0.5,0-0.7,0V6.6z M21.9,8.8v3.2c0.2,0,0.4,0,0.7,0.1c0.2,0,0.5,0,0.8,0c0.8,0,1.5-0.1,2-0.4c0.5-0.2,0.8-0.7,0.8-1.3
		c0-0.6-0.2-1-0.6-1.2c-0.4-0.2-1-0.4-1.8-0.4H21.9z"/>
	<path d="M41,14.4c-2,0-3.5-0.6-4.6-1.7S34.9,10,34.9,8c0-1,0.2-1.9,0.5-2.7c0.3-0.8,0.8-1.5,1.3-2c0.6-0.6,1.2-1,2-1.3
		c0.8-0.3,1.6-0.4,2.5-0.4c0.5,0,1,0,1.4,0.1c0.4,0.1,0.8,0.2,1.1,0.3C44,2,44.3,2.1,44.5,2.2c0.2,0.1,0.4,0.2,0.5,0.2l-0.8,2.2
		c-0.4-0.2-0.8-0.4-1.3-0.5C42.3,4.1,41.8,4,41.1,4c-0.4,0-0.8,0.1-1.3,0.2c-0.4,0.1-0.8,0.4-1.1,0.7c-0.3,0.3-0.6,0.7-0.8,1.2
		c-0.2,0.5-0.3,1.1-0.3,1.8c0,0.6,0.1,1.1,0.2,1.6c0.1,0.5,0.3,0.9,0.6,1.3c0.3,0.4,0.6,0.6,1.1,0.8c0.5,0.2,1,0.3,1.6,0.3
		c0.4,0,0.8,0,1.1-0.1c0.3,0,0.6-0.1,0.8-0.2c0.2-0.1,0.5-0.1,0.7-0.2c0.2-0.1,0.4-0.2,0.5-0.2l0.8,2.2c-0.4,0.2-0.9,0.4-1.7,0.6
		C42.8,14.3,41.9,14.4,41,14.4z"/>
</g>
</svg>
