<?xml version="1.0" encoding="utf-8"?>
<!-- Generator: Adobe Illustrator 27.7.0, SVG Export Plug-In . SVG Version: 6.00 Build 0)  -->
<svg version="1.1" id="Ebene_1" xmlns="http://www.w3.org/2000/svg" xmlns:xlink="http://www.w3.org/1999/xlink" x="0px" y="0px"
	 viewBox="0 0 46 39.9" style="enable-background:new 0 0 46 39.9;" xml:space="preserve">
<style type="text/css">
	.st0{fill:#FFFFFF;}
</style>
<path d="M44.6,39.6H1.6c-0.7,0-1.3-0.6-1.3-1.3V23.8c0-0.7,0.6-1.3,1.3-1.3h42.9c0.7,0,1.3,0.6,1.3,1.3v14.5
	C45.9,39,45.3,39.6,44.6,39.6z"/>
<g>
	<path class="st0" d="M4.2,27.2c0.4-0.1,0.7-0.3,1.1-0.5s0.8-0.4,1.1-0.6c0.4-0.2,0.7-0.5,1.1-0.7c0.3-0.3,0.6-0.5,0.9-0.8h1.9v12.9
		H7.6v-9.3c-0.4,0.2-0.8,0.5-1.2,0.7C5.9,29,5.4,29.2,5,29.4L4.2,27.2z"/>
	<path class="st0" d="M27.1,27.9c0,0.5-0.1,0.9-0.3,1.4c-0.2,0.4-0.4,0.9-0.7,1.3c-0.3,0.4-0.6,0.8-1,1.2c-0.4,0.4-0.7,0.7-1.1,1.1
		c-0.2,0.2-0.4,0.4-0.6,0.6c-0.2,0.2-0.4,0.4-0.6,0.7c-0.2,0.2-0.4,0.4-0.5,0.6C22.1,34.8,22,35,22,35.1h5.5v2.3h-8.6
		c0-0.1,0-0.3,0-0.5s0-0.4,0-0.4c0-0.6,0.1-1.1,0.3-1.6c0.2-0.5,0.4-1,0.8-1.4c0.3-0.4,0.7-0.8,1.1-1.2c0.4-0.4,0.8-0.7,1.2-1.1
		c0.3-0.3,0.6-0.6,0.8-0.8c0.3-0.3,0.5-0.5,0.7-0.7c0.2-0.2,0.4-0.5,0.5-0.7c0.1-0.2,0.2-0.5,0.2-0.7c0-0.5-0.2-0.9-0.5-1.2
		c-0.3-0.2-0.7-0.3-1.2-0.3c-0.3,0-0.6,0.1-0.9,0.2c-0.3,0.1-0.6,0.2-0.8,0.4c-0.2,0.1-0.4,0.3-0.6,0.4c-0.2,0.1-0.3,0.3-0.4,0.3
		L18.6,26c0.5-0.5,1.2-0.9,1.9-1.3s1.5-0.5,2.3-0.5c0.8,0,1.4,0.1,2,0.3c0.5,0.2,1,0.4,1.3,0.7c0.4,0.3,0.6,0.7,0.8,1.2
		C27,26.9,27.1,27.4,27.1,27.9z"/>
	<path class="st0" d="M37.2,37.7c-0.3,0-0.7,0-1.1-0.1s-0.7-0.1-1.1-0.2c-0.3-0.1-0.7-0.2-0.9-0.2s-0.5-0.2-0.7-0.2l0.5-2.3
		c0.3,0.1,0.7,0.3,1.2,0.4c0.5,0.2,1.1,0.2,1.9,0.2c0.9,0,1.5-0.2,1.9-0.5c0.4-0.3,0.6-0.8,0.6-1.3c0-0.3-0.1-0.6-0.2-0.8
		c-0.1-0.2-0.3-0.4-0.6-0.6c-0.2-0.1-0.5-0.2-0.9-0.3c-0.3-0.1-0.7-0.1-1.1-0.1h-1.1v-2.2h1.2c0.3,0,0.5,0,0.8-0.1
		c0.3-0.1,0.5-0.1,0.7-0.3c0.2-0.1,0.4-0.3,0.5-0.5C39,28.5,39,28.3,39,28c0-0.2-0.1-0.4-0.1-0.6c-0.1-0.2-0.2-0.3-0.4-0.4
		c-0.2-0.1-0.3-0.2-0.5-0.3s-0.4-0.1-0.6-0.1c-0.5,0-1,0.1-1.5,0.2c-0.5,0.2-0.9,0.4-1.2,0.6l-1-2c0.2-0.1,0.4-0.3,0.7-0.4
		c0.3-0.1,0.6-0.3,0.9-0.4c0.3-0.1,0.7-0.2,1-0.3c0.4-0.1,0.8-0.1,1.2-0.1c0.8,0,1.4,0.1,2,0.3s1,0.4,1.4,0.8
		c0.4,0.3,0.6,0.7,0.8,1.2c0.2,0.4,0.3,0.9,0.3,1.4c0,0.5-0.1,1-0.4,1.5c-0.3,0.5-0.7,0.8-1.2,1.1c0.7,0.3,1.2,0.7,1.6,1.2
		c0.4,0.5,0.5,1.2,0.5,1.9c0,0.6-0.1,1.1-0.3,1.6c-0.2,0.5-0.5,0.9-0.9,1.3c-0.4,0.4-1,0.7-1.6,0.9C38.8,37.6,38.1,37.7,37.2,37.7z"
		/>
</g>
<g>
	<line x1="1.8" y1="2.7" x2="44.2" y2="2.7"/>
	<path d="M44.2,4.2H1.8C1,4.2,0.3,3.5,0.3,2.7S1,1.2,1.8,1.2h42.5c0.8,0,1.5,0.7,1.5,1.5S45.1,4.2,44.2,4.2z"/>
</g>
<g>
	<line x1="1.8" y1="17.8" x2="32.8" y2="17.8"/>
	<path d="M32.8,19.3h-31c-0.8,0-1.5-0.7-1.5-1.5s0.7-1.5,1.5-1.5h31c0.8,0,1.5,0.7,1.5,1.5S33.6,19.3,32.8,19.3z"/>
</g>
<g>
	<g>
		<line x1="1.8" y1="10.2" x2="18.2" y2="10.2"/>
		<path d="M18.2,11.7H1.8c-0.8,0-1.5-0.7-1.5-1.5S1,8.7,1.8,8.7h16.5c0.8,0,1.5,0.7,1.5,1.5S19.1,11.7,18.2,11.7z"/>
	</g>
	<g>
		<line x1="27.8" y1="10.2" x2="44.2" y2="10.2"/>
		<path d="M44.2,11.7H27.8c-0.8,0-1.5-0.7-1.5-1.5s0.7-1.5,1.5-1.5h16.5c0.8,0,1.5,0.7,1.5,1.5S45.1,11.7,44.2,11.7z"/>
	</g>
</g>
</svg>
