<svg role="img" width="124" height="19" viewBox="0 0 124 19" fill="none" xmlns="http://www.w3.org/2000/svg">
  <path d="M117.659 17.6534H119.415C120.612 17.6534 121.411 16.8455 121.411 15.6336V12.2807C121.411 11.0283 121.81 10.6648 123.007 10.6648V8.48335C121.81 8.48335 121.411 8.11977 121.411 6.86747V3.51453C121.411 2.30262 120.612 1.49468 119.415 1.49468H117.659V3.67612H118.198C118.837 3.67612 119.016 3.8983 119.016 4.58505V7.59461C119.016 9.19029 119.695 9.45287 120.493 9.57406C119.695 9.69525 119.016 9.95783 119.016 11.5535V14.5631C119.016 15.2498 118.837 15.472 118.198 15.472H117.659V17.6534ZM110.802 8.45641C110.982 7.48689 111.72 6.51736 112.977 6.51736C114.294 6.51736 114.913 7.44649 115.132 8.45641H110.802ZM112.977 14.8795C115.411 14.8795 116.768 13.708 117.546 11.9103L115.551 11.163C114.953 12.2133 114.254 12.7385 113.117 12.7385C111.581 12.7385 110.802 11.567 110.743 10.4359H117.666V9.40574C117.666 7.18391 116.329 4.37633 112.977 4.37633C109.526 4.37633 108.149 7.22431 108.149 9.62792C108.149 12.0315 109.526 14.8795 112.977 14.8795ZM102.848 14.7179H105.083L108.495 4.54465H106.001L103.965 11.6276L101.93 4.54465H99.4362L102.848 14.7179ZM96.4301 14.7179H98.9042V4.54465H96.4301V14.7179ZM97.6671 3.23175C98.5849 3.23175 99.2633 2.52481 99.2633 1.61588C99.2633 0.706945 98.5849 0 97.6671 0C96.7493 0 96.0709 0.706945 96.0709 1.61588C96.0709 2.52481 96.7493 3.23175 97.6671 3.23175ZM94.222 14.8795C94.7607 14.8795 95.2994 14.7785 95.8581 14.5159L95.2795 12.4961C94.9403 12.6779 94.661 12.7385 94.3218 12.7385C93.4838 12.7385 93.0049 12.3345 93.0049 11.0822V6.68568H95.6586V4.54465H93.0049V0.424167L90.5308 1.99965V4.54465H88.9745V6.68568H90.5308V11.1293C90.5308 13.6474 91.9474 14.8795 94.222 14.8795ZM84.299 14.8795C86.5337 14.8795 88.1099 13.8898 88.8681 11.9709L86.6534 11.062C86.1346 12.1325 85.4163 12.7385 84.299 12.7385C82.7427 12.7385 81.9845 11.4256 81.9845 9.62792C81.9845 7.83026 82.7427 6.51736 84.299 6.51736C85.4163 6.51736 86.1346 7.12332 86.6534 8.19383L88.8681 7.2849C88.1099 5.36605 86.5337 4.37633 84.299 4.37633C81.0268 4.37633 79.3907 6.75975 79.3907 9.62792C79.3907 12.4961 81.0268 14.8795 84.299 14.8795ZM71.9219 8.45641C72.1014 7.48689 72.8397 6.51736 74.0967 6.51736C75.4135 6.51736 76.0321 7.44649 76.2515 8.45641H71.9219ZM74.0967 14.8795C76.5309 14.8795 77.8876 13.708 78.6658 11.9103L76.6705 11.163C76.072 12.2133 75.3736 12.7385 74.2363 12.7385C72.7 12.7385 71.9219 11.567 71.862 10.4359H78.7855V9.40574C78.7855 7.18391 77.4487 4.37633 74.0967 4.37633C70.6449 4.37633 69.2682 7.22431 69.2682 9.62792C69.2682 12.0315 70.6449 14.8795 74.0967 14.8795ZM66.1556 14.7179H68.6297V0.424167H66.1556V14.7179ZM62.0587 14.7179H64.5328V0.424167H62.0587V14.7179ZM56.3124 12.7385C54.7162 12.7385 53.7984 11.3044 53.7984 9.62792C53.7984 7.95145 54.7162 6.51736 56.3124 6.51736C57.9086 6.51736 58.8264 7.95145 58.8264 9.62792C58.8264 11.3044 57.9086 12.7385 56.3124 12.7385ZM56.3124 14.8795C59.5447 14.8795 61.4202 12.5769 61.4202 9.62792C61.4202 6.67895 59.5447 4.37633 56.3124 4.37633C53.0801 4.37633 51.2046 6.67895 51.2046 9.62792C51.2046 12.5769 53.0801 14.8795 56.3124 14.8795ZM46.6821 14.8795C48.9167 14.8795 50.493 13.8898 51.2512 11.9709L49.0364 11.062C48.5177 12.1325 47.7994 12.7385 46.6821 12.7385C45.1258 12.7385 44.3676 11.4256 44.3676 9.62792C44.3676 7.83026 45.1258 6.51736 46.6821 6.51736C47.7994 6.51736 48.5177 7.12332 49.0364 8.19383L51.2512 7.2849C50.493 5.36605 48.9167 4.37633 46.6821 4.37633C43.4099 4.37633 41.7738 6.75975 41.7738 9.62792C41.7738 12.4961 43.4099 14.8795 46.6821 14.8795ZM40.5966 17.6534H42.3524V15.472H41.8137C41.1752 15.472 40.9956 15.2498 40.9956 14.5631V11.5535C40.9956 9.95783 40.3172 9.69525 39.5191 9.57406C40.3172 9.45287 40.9956 9.19029 40.9956 7.59461V4.58505C40.9956 3.8983 41.1752 3.67612 41.8137 3.67612H42.3524V1.50142H40.5966C39.3994 1.50142 38.6013 2.30936 38.6013 3.52126V6.8742C38.6013 8.12651 38.2023 8.49008 37.0051 8.49008V10.6715C38.2023 10.6715 38.6013 11.0351 38.6013 12.2874V15.6403C38.6013 16.8455 39.3994 17.6534 40.5966 17.6534Z" fill="#F35C49"/>
  <path d="M29.33 8.46315C29.5096 7.49362 30.2479 6.5241 31.5049 6.5241C32.8217 6.5241 33.4402 7.45322 33.6597 8.46315H29.33ZM31.5049 14.8795C33.9391 14.8795 35.2958 13.708 36.074 11.9103L34.0787 11.163C33.4802 12.2133 32.7818 12.7385 31.6445 12.7385C30.1082 12.7385 29.33 11.567 29.2702 10.4359H36.1937V9.40574C36.1937 7.18391 34.8569 4.37633 31.5049 4.37633C28.0531 4.37633 26.6764 7.22431 26.6764 9.62792C26.6764 12.0315 28.0531 14.8795 31.5049 14.8795ZM23.0849 14.7179H25.559V0.424167H23.0849V14.7179ZM18.9814 14.7179H21.4555V4.54465H18.9814V14.7179ZM20.2184 3.23175C21.1363 3.23175 21.8146 2.52481 21.8146 1.61588C21.8146 0.706945 21.1363 0 20.2184 0C19.3006 0 18.6223 0.706945 18.6223 1.61588C18.6223 2.52481 19.3006 3.23175 20.2184 3.23175ZM13.7073 16.8994C12.4104 16.8994 11.4527 16.4146 11.4527 15.4451C11.4527 15.0613 11.5125 14.7583 11.6722 14.5159C12.0313 14.5765 12.4104 14.5967 12.8294 14.5967H14.1862C15.1239 14.5967 15.8023 14.7987 15.8023 15.6471C15.8023 16.556 14.8845 16.8994 13.7073 16.8994ZM13.6874 9.18356C12.8893 9.18356 12.3106 8.6382 12.3106 7.81006C12.3106 6.96173 12.8893 6.39617 13.6874 6.39617C14.4855 6.39617 15.0641 6.96173 15.0641 7.81006C15.0641 8.64493 14.4855 9.18356 13.6874 9.18356ZM13.7073 19C15.942 19 18.2764 17.9901 18.2764 15.4855C18.2764 13.5262 16.8598 12.4961 14.7448 12.4961H12.6897C12.0912 12.4961 11.752 12.2335 11.752 11.7488C11.752 11.4256 11.9315 11.163 12.2308 10.9812C12.6698 11.1226 13.1686 11.2034 13.6874 11.2034C15.7225 11.2034 17.3786 9.9511 17.3786 7.81006C17.3786 7.20411 17.2389 6.65875 16.9795 6.19419L18.4161 5.46704L17.4384 3.81077L15.5429 4.82069C14.9843 4.53792 14.3657 4.37633 13.6874 4.37633C11.6522 4.37633 9.99616 5.68923 9.99616 7.81006C9.99616 8.6584 10.2555 9.36534 10.6945 9.9107C9.95625 10.3551 9.45745 11.0822 9.45745 12.0517C9.45745 12.6981 9.65697 13.2434 9.97621 13.6272C9.45744 14.112 9.15816 14.8189 9.15816 15.6471C9.15816 17.8689 11.1334 19 13.7073 19ZM3.71115 12.7385C3.05272 12.7385 2.59381 12.3345 2.59381 11.7488C2.59381 10.8398 3.25224 10.4359 4.30972 10.4359H5.96577V10.6378C5.96577 11.9507 4.82848 12.7385 3.71115 12.7385ZM3.05272 14.8795C4.48929 14.8795 5.44701 14.2938 6.14534 13.4252L6.40473 14.7179H8.43987V8.6382C8.43987 5.79022 6.86363 4.37633 4.20996 4.37633C2.19477 4.37633 0.698335 5.52764 0.379096 7.20411L2.4741 7.68887C2.79334 6.84054 3.41186 6.51736 4.20996 6.51736C5.12777 6.51736 5.96577 6.94153 5.96577 8.01205V8.45641H4.20996C1.6361 8.46315 0 9.76931 0 11.7892C0 13.809 1.33681 14.8795 3.05272 14.8795Z" fill="white"/>
</svg>
