<?xml version="1.0" encoding="iso-8859-1"?>
<!-- Uploaded to: SVG Repo, www.svgrepo.com, Generator: SVG Repo Mixer Tools -->
<!DOCTYPE svg PUBLIC "-//W3C//DTD SVG 1.1//EN" "http://www.w3.org/Graphics/SVG/1.1/DTD/svg11.dtd">
<svg fill="#000000" version="1.1" id="Capa_1" xmlns="http://www.w3.org/2000/svg" xmlns:xlink="http://www.w3.org/1999/xlink" 
	 width="800px" height="800px" viewBox="0 0 42.165 42.165"
	 xml:space="preserve">
<g>
	<path d="M12.083,2.874C12.083,1.286,10.795,0,9.208,0S6.333,1.286,6.333,2.874v2.873v4v29.418c0,1.657,1.343,3,3,3h23.5
		c1.657,0,3-1.343,3-3V8.747c0-1.657-1.343-3-3-3h-17.75C13.425,5.747,12.083,4.461,12.083,2.874z M13.29,37.747
		c-1.312,0-2.375-1.063-2.375-2.375s1.063-2.375,2.375-2.375s2.375,1.063,2.375,2.375S14.602,37.747,13.29,37.747z M13.29,31.08
		c-1.312,0-2.375-1.062-2.375-2.375s1.063-2.375,2.375-2.375s2.375,1.062,2.375,2.375S14.602,31.08,13.29,31.08z M20.999,37.747
		c-1.312,0-2.375-1.063-2.375-2.375s1.063-2.375,2.375-2.375c1.311,0,2.375,1.063,2.375,2.375S22.309,37.747,20.999,37.747z
		 M20.999,31.08c-1.312,0-2.375-1.062-2.375-2.375s1.063-2.375,2.375-2.375c1.311,0,2.375,1.062,2.375,2.375
		S22.309,31.08,20.999,31.08z M28.708,37.747c-1.312,0-2.375-1.063-2.375-2.375s1.062-2.375,2.375-2.375
		c1.311,0,2.375,1.063,2.375,2.375S30.018,37.747,28.708,37.747z M28.708,31.08c-1.312,0-2.375-1.062-2.375-2.375
		s1.062-2.375,2.375-2.375c1.311,0,2.375,1.062,2.375,2.375S30.018,31.08,28.708,31.08z M28.333,22.622H13.666c-1.657,0-3-1.343-3-3
		v-5.875c0-1.657,1.343-3,3-3h14.667c1.657,0,3,1.343,3,3v5.875C31.333,21.279,29.99,22.622,28.333,22.622z"/>
</g>
</svg>