<svg xmlns="http://www.w3.org/2000/svg" width="32" height="32" viewBox="0 0 32 32"><g transform="translate(-536 -1103)"><circle cx="16" cy="16" r="16" transform="translate(536 1103)" fill="#f0f0f0"/><g transform="translate(543 1109.775)"><path d="M.3,6.2H4.035V18.225H.3ZM2.166.225A2.167,2.167,0,1,1,0,2.392,2.168,2.168,0,0,1,2.166.225" fill="#007ab9"/><path d="M89.456,80.169h3.584v1.644h.051a3.926,3.926,0,0,1,3.536-1.942c3.784,0,4.483,2.489,4.483,5.727v6.594H97.375V86.346c0-1.395-.024-3.188-1.942-3.188-1.945,0-2.241,1.52-2.241,3.088v5.947H89.456Z" transform="translate(-83.078 -73.968)" fill="#007ab9"/></g></g></svg>