<?xml version="1.0" encoding="UTF-8"?><svg id="a" xmlns="http://www.w3.org/2000/svg" width="32" height="32" viewBox="0 0 32 32"><path d="M32,16c0,8.84-7.16,16-16,16S0,24.84,0,16,7.16,0,16,0s16,7.16,16,16Z" fill="#a6ce39"/><g><path d="M10.79,23.27h-1.93V9.89h1.93v13.39Z" fill="#fff"/><path d="M13.61,9.89h5.2c4.95,0,7.12,3.54,7.12,6.7,0,3.44-2.69,6.7-7.1,6.7h-5.23V9.89Zm1.93,11.66h3.06c4.36,0,5.36-3.31,5.36-4.96,0-2.69-1.71-4.96-5.46-4.96h-2.96v9.92h0Z" fill="#fff"/><path d="M11.09,7.1c0,.69-.56,1.26-1.26,1.26s-1.26-.57-1.26-1.26,.56-1.26,1.26-1.26c.7,0,1.26,.57,1.26,1.26Z" fill="#fff"/></g></svg>