<?xml version="1.0" encoding="UTF-8"?><svg id="a" xmlns="http://www.w3.org/2000/svg" width="32" height="32" viewBox="0 0 32 32"><g id="b"><path d="M32,16c0,8.83-7.17,16-16,16S0,24.83,0,16,7.16,0,16,0s16,7.17,16,16Zm-14.77,6.99c-1.43-.28-2.28-1.11-4.44-4.32q-.72-1.08-1.42-1.13c-1.03-.07-.95-.25-.92,2.02,.04,2.58,0,2.52,1.5,2.76,.39,.06,.42,.09,.42,.32q0,.26-2.62,.28c-2.46,.02-2.62,0-2.67-.14-.1-.29,.05-.43,.59-.53,.61-.11,.93-.36,1.01-.78,.04-.16,.05-2.32,.03-4.79-.03-5.2,.03-4.89-.93-5.1-.6-.13-.79-.27-.71-.51,.06-.16,.19-.17,2.92-.22,4.05-.08,4.81,.05,5.89,1.01,1.13,1.01,1.29,2.55,.39,3.83-.4,.58-1.2,1.2-1.82,1.43-.29,.11-.53,.23-.53,.27,0,.12,.92,1.43,1.49,2.13,1.52,1.85,2.34,2.57,3.19,2.78,.53,.14,.68,.29,.53,.55-.16,.27-.96,.33-1.9,.14Zm-3.83-6.62c2-.82,2.15-3.56,.25-4.37-.49-.21-.62-.22-1.85-.22q-1.33,0-1.35,2.31c-.02,1.27,0,2.37,.02,2.43,.09,.21,2.34,.1,2.93-.14Zm6.96-2.84c-1.55-.29-2.06-1.24-1.98-3.67,.04-1.35,.15-1.72,.67-2.28,.92-.99,3.2-.9,4.03,.16,.36,.45,.33,.59-.17,.74q-.39,.13-.75-.23c-.85-.82-2.32-.52-2.58,.54-.13,.47-.12,2.46,0,2.9,.35,1.27,2.46,1.27,2.82,0,.22-.81,.17-.87-.8-.92q-.47-.02-.47-.41t1.12-.41c1.45-.03,1.43-.05,1.36,1.01-.09,1.33-.45,1.97-1.32,2.35-.57,.24-1.35,.33-1.95,.22Z" fill="#04d4ac"/><path d="M17.23,22.99c-1.43-.28-2.28-1.11-4.44-4.32q-.72-1.08-1.42-1.13c-1.03-.07-.95-.25-.92,2.02,.04,2.58,0,2.52,1.5,2.76,.39,.06,.42,.09,.42,.32q0,.26-2.62,.28c-2.46,.02-2.62,0-2.67-.14-.1-.29,.05-.43,.59-.53,.61-.11,.93-.36,1.01-.78,.04-.16,.05-2.32,.03-4.79-.03-5.2,.03-4.89-.93-5.1-.6-.13-.79-.27-.71-.51,.06-.16,.19-.17,2.92-.22,4.05-.08,4.81,.05,5.89,1.01,1.13,1.01,1.29,2.55,.39,3.83-.4,.58-1.2,1.2-1.82,1.43-.29,.11-.53,.23-.53,.27,0,.12,.92,1.43,1.49,2.13,1.52,1.85,2.34,2.57,3.19,2.78,.53,.14,.68,.29,.53,.55-.16,.27-.96,.33-1.9,.14Zm-3.83-6.62c2-.82,2.15-3.56,.25-4.37-.49-.21-.62-.22-1.85-.22q-1.33,0-1.35,2.31c-.02,1.27,0,2.37,.02,2.43,.09,.21,2.34,.1,2.93-.14Zm6.96-2.84c-1.55-.29-2.06-1.24-1.98-3.67,.04-1.35,.15-1.72,.67-2.28,.92-.99,3.2-.9,4.03,.16,.36,.45,.33,.59-.17,.74q-.39,.13-.75-.23c-.85-.82-2.32-.52-2.58,.54-.13,.47-.12,2.46,0,2.9,.35,1.27,2.46,1.27,2.82,0,.22-.81,.17-.87-.8-.92q-.47-.02-.47-.41t1.12-.41c1.45-.03,1.43-.05,1.36,1.01-.09,1.33-.45,1.97-1.32,2.35-.57,.24-1.35,.33-1.95,.22Z" fill="#fff"/></g></svg>