<?xml version="1.0" encoding="UTF-8"?>
<svg id="laptop" xmlns="http://www.w3.org/2000/svg" viewBox="0 0 420 300">
  <defs>
    <style>
      .cls-1 {
        stroke-width: 1.5px;
      }

      .cls-1, .cls-2, .cls-3, .cls-4, .cls-5 {
        stroke-linecap: round;
      }

      .cls-1, .cls-2, .cls-3, .cls-4, .cls-5, .cls-6, .cls-7 {
        stroke: #000;
      }

      .cls-1, .cls-2, .cls-3, .cls-4, .cls-5, .cls-8, .cls-9, .cls-10, .cls-7, .cls-11 {
        fill: none;
      }

      .cls-1, .cls-5 {
        stroke-miterlimit: 10;
      }

      .cls-2 {
        stroke-linejoin: round;
      }

      .cls-3 {
        stroke-width: 1.65px;
      }

      .cls-3, .cls-4, .cls-6, .cls-8, .cls-9, .cls-10, .cls-7, .cls-11 {
        stroke-miterlimit: 10;
      }

      .cls-6, .cls-12 {
        fill: #9fa2a5;
      }

      .cls-8 {
        stroke: #cc539c;
      }

      .cls-8, .cls-9, .cls-10 {
        stroke-width: 2px;
      }

      .cls-9 {
        stroke: #a9bf2c;
      }

      .cls-10 {
        stroke: #fbb216;
      }

      .cls-11 {
        stroke: #00b1dd;
      }

      .cls-13 {
        fill: #a9bf2c;
        fill-rule: evenodd;
      }

      .cls-13, .cls-14, .cls-15, .cls-16, .cls-12 {
        stroke-width: 0px;
      }

      .cls-15 {
        fill: #cc539c;
      }

      .cls-16 {
        fill: #c8cbce;
      }
    </style>
  </defs>
  <g>
    <circle class="cls-15" cx="320.37" cy="92.96" r="2.04"/>
    <path class="cls-15" d="M317.8,88.36c.18.68.89,1.08,1.57.9s1.08-.89.9-1.57l-1.13-7.1c-.3-1.09-1.42-1.73-2.51-1.44s-1.73,1.42-1.44,2.51l2.61,6.7Z"/>
  </g>
  <path class="cls-1" d="M312.63,73.96l-6.29,23.79c-.59,2.25,1.47,4.3,3.71,3.69l23.75-6.45c2.24-.61,2.99-3.42,1.34-5.06l-17.46-17.34c-1.65-1.64-4.46-.88-5.05,1.37Z"/>
  <path id="Path_8678" data-name="Path 8678" class="cls-13" d="M188.1,45.19c.1-.07.22-.09.34-.06,1.16.24,2.21.84,3,1.72-.07-1.6-.54-2.78-1.42-3.56-1.45-1.27-4.03-1.49-7.74-.68.89,3.7,2.23,5.93,4,6.67,1.36.58,3.04.28,5.03-.9-.49-1.18-1.52-1.97-3.09-2.36-.12-.03-.22-.11-.28-.22-.06-.1-.08-.23-.05-.34.03-.12.1-.21.2-.27M181.35,42.03c.06-.1.16-.18.27-.2,4.25-1,7.25-.74,9,.78,1.39,1.21,1.94,3.18,1.67,5.91v.13s-.01,4.32-.01,4.32c0,.12-.04.23-.13.32-.09.09-.21.14-.33.14-.12,0-.24-.05-.32-.14-.09-.08-.14-.2-.14-.32v-3.57c-2.09,1.14-3.91,1.38-5.44.73-2.14-.9-3.69-3.49-4.65-7.76-.02-.11,0-.23.07-.33M201.49,44.92c-.83,3.12-2.08,5.03-3.74,5.72-1.13.47-2.42.37-3.88-.31v2.63c0,.12-.04.23-.13.32-.09.09-.21.14-.33.14-.12,0-.24-.05-.32-.14-.09-.08-.14-.2-.14-.32v-3.63c-.09-1.85.39-3.23,1.43-4.14,1.34-1.16,3.59-1.44,6.74-.84.12.02.23.1.3.2.07.11.09.24.06.36M196.81,47.46c-.05.11-.15.19-.27.22-1.02.26-1.93.85-2.58,1.67,1.33.7,2.48.86,3.46.45,1.3-.54,2.32-2.08,3.07-4.64-2.59-.43-4.42-.19-5.49.73-.61.56-1,1.33-1.07,2.16.68-.58,1.49-1.01,2.35-1.25.11-.03.23-.02.34.03.11.06.19.15.23.27.04.12.03.24-.03.35"/>
  <path id="Path_8679" data-name="Path 8679" class="cls-7" d="M205.96,46.7l-1.09,1.95.51,2.18-1.6,1.56-.13,2.23-1.98,1.04-.75,2.1-2.19.45-1.31,1.81-2.23-.19-1.77,1.36-2.08-.81-2.08.81-1.77-1.36-2.23.19-1.31-1.81-2.19-.45-.75-2.1-1.98-1.05-.13-2.23-1.6-1.56.51-2.18-1.09-1.95,1.09-1.95-.51-2.18,1.6-1.56.13-2.23,1.98-1.04.75-2.1,2.19-.45,1.31-1.81,2.23.19,1.77-1.36,2.08.81,2.08-.81,1.77,1.36,2.23-.19,1.31,1.81,2.19.45.75,2.1,1.98,1.04.13,2.23,1.6,1.56-.51,2.18,1.09,1.95Z"/>
  <circle id="Ellipse_146" data-name="Ellipse 146" class="cls-7" cx="191.36" cy="46.67" r="12.37"/>
  <path class="cls-1" d="M359.93,87.01l-15.18,20.14c-1.43,1.9-.27,4.65,2.09,4.94l25.04,3.08c2.37.29,4.16-2.09,3.23-4.28l-9.85-23.22c-.93-2.19-3.89-2.56-5.32-.65Z"/>
  <path class="cls-5" d="M368.35,111.81c-.17.43-.61.67-1.04.62-.08-.01-.17-.03-.25-.06l-6.52-2.63-3.69-1.49-3.32-1.34c-.51-.21-.75-.79-.55-1.29.17-.43.61-.67,1.04-.61.09.01.17.03.25.06l6.52,2.63,3.69,1.49,3.32,1.34c.51.21.76.79.55,1.29Z"/>
  <path class="cls-5" d="M356.85,108.24l3.69,1.49-6.96.98c-.09.01-.18.01-.26,0-.44-.05-.8-.39-.86-.85-.08-.54.3-1.05.85-1.12l3.55-.5Z"/>
  <path class="cls-5" d="M368.02,108.68l-3.54.5-3.69-1.49,6.96-.98c.09-.01.18-.01.26,0,.44.05.8.39.86.85.08.54-.3,1.05-.85,1.12Z"/>
  <path class="cls-5" d="M367.78,101.56c-.26,2.08-1.47,2.94-3.31,3.38-1.15.28-.47,2.01-2.9,1.87-3.32-.19-2.17-2.05-3.51-2.21-1.76-.22-3.72-2.35-3.44-4.65.45-3.64,3.76-6.22,7.39-5.77s6.22,3.76,5.77,7.39Z"/>
  <g>
    <path class="cls-14" d="M360.79,103.78l.94-1.62c.16-.28.57-.22.66.08l.51,1.79c.1.36-.19.7-.56.66h0c-.27-.26-.66-.34-1.01-.2l-.15.06c-.36-.04-.56-.44-.38-.76Z"/>
    <path class="cls-14" d="M360.48,101.11c-.1.85-.88,1.45-1.72,1.35-.94-.12-1.51-1.13-1.35-1.72.07-.25.3-.43.77-.8s.7-.54.96-.55c.62-.02,1.46.78,1.35,1.72Z"/>
    <path class="cls-14" d="M363.19,100.78c-.1.85.5,1.62,1.35,1.72.94.12,1.74-.73,1.72-1.35,0-.26-.19-.5-.55-.96s-.54-.7-.8-.77c-.6-.17-1.61.41-1.72,1.35Z"/>
  </g>
  <g>
    <path class="cls-14" d="M143.31,48.22c.5,0,.97.23,1.28.63.31.4.41.91.29,1.39l-1.64,6.39c-.18.72-.83,1.21-1.57,1.21h-2.37c-.74,0-1.38-.5-1.57-1.21l-1.64-6.39c-.13-.49-.02-1,.29-1.39s.77-.63,1.28-.63h5.65M143.31,47.22h-5.65c-1.71,0-2.96,1.61-2.53,3.27l1.64,6.39c.3,1.16,1.34,1.97,2.53,1.97h2.37c1.19,0,2.24-.81,2.53-1.97l1.64-6.39c.43-1.66-.83-3.27-2.53-3.27h0Z"/>
    <path class="cls-14" d="M140.48,41.24c1.23,0,2.23,1,2.23,2.23s-1,2.23-2.23,2.23-2.23-1-2.23-2.23,1-2.23,2.23-2.23M140.48,40.24c-1.78,0-3.23,1.45-3.23,3.23s1.45,3.23,3.23,3.23,3.23-1.45,3.23-3.23-1.45-3.23-3.23-3.23h0Z"/>
  </g>
  <g>
    <path class="cls-14" d="M163.58,24.89c.5,0,.97.23,1.28.63s.41.91.29,1.39l-1.64,6.39c-.18.72-.83,1.21-1.57,1.21h-2.37c-.74,0-1.38-.5-1.57-1.21l-1.64-6.39c-.13-.49-.02-1,.29-1.39s.77-.63,1.28-.63h5.65M163.58,23.89h-5.65c-1.71,0-2.96,1.61-2.53,3.27l1.64,6.39c.3,1.16,1.34,1.97,2.53,1.97h2.37c1.19,0,2.24-.81,2.53-1.97l1.64-6.39c.43-1.66-.83-3.27-2.53-3.27h0Z"/>
    <path class="cls-14" d="M160.76,17.91c1.23,0,2.23,1,2.23,2.23s-1,2.23-2.23,2.23-2.23-1-2.23-2.23,1-2.23,2.23-2.23M160.76,16.91c-1.78,0-3.23,1.45-3.23,3.23s1.45,3.23,3.23,3.23,3.23-1.45,3.23-3.23-1.45-3.23-3.23-3.23h0Z"/>
  </g>
  <path class="cls-3" d="M134.09,37.72c0-9.18,7.44-16.62,16.62-16.62"/>
  <path class="cls-3" d="M167.33,37.72c0,9.18-7.44,16.62-16.62,16.62"/>
  <path class="cls-14" d="M149.35,19.11l2.09,1.61c.25.19.25.57,0,.76l-2.09,1.61c-.32.24-.77.02-.77-.38v-3.23c0-.4.46-.62.77-.38Z"/>
  <path class="cls-14" d="M151.38,52.51l-2.09,1.61c-.25.19-.25.57,0,.76l2.09,1.61c.32.24.77.02.77-.38v-3.23c0-.4-.46-.62-.77-.38Z"/>
  <g>
    <line id="Line_818" data-name="Line 818" class="cls-4" x1="42.77" y1="98.11" x2="73.05" y2="115.59"/>
    <line id="Line_819" data-name="Line 819" class="cls-4" x1="63.69" y1="131.18" x2="31.98" y2="112.87"/>
  </g>
  <path id="Path_8608" data-name="Path 8608" class="cls-14" d="M69.78,128.8c-.6.57-1.26,1.08-1.97,1.5-2.83,1.63-5.23.93-6.1-1.5h8.07Z"/>
  <path id="Path_8609" data-name="Path 8609" class="cls-14" d="M70.09,128.81c-.6.57-1.26,1.08-1.97,1.5-2.35,1.36-4.41,1.1-5.53-.42-.21-.34-.37-.7-.48-1.08-.18-.63-.27-1.28-.26-1.94,0-.9.13-1.79.36-2.65l7.89,4.59Z"/>
  <path id="Path_8606" data-name="Path 8606" class="cls-4" d="M74.41,119.43c0,4.08-2.88,9.05-6.44,11.1s-6.44.41-6.44-3.67,2.88-9.05,6.44-11.1,6.44-.41,6.44,3.67Z"/>
  <path id="Path_8670" data-name="Path 8670" class="cls-11" d="M95.2,140.43c-3.41,0-3.41,2.43-6.83,2.43s-3.41-2.43-6.83-2.43-3.41,2.43-6.83,2.43-3.41-2.43-6.83-2.43-3.41,2.43-6.83,2.43-3.41-2.43-6.83-2.43-3.41,2.43-6.83,2.43"/>
  <path id="Path_8671" data-name="Path 8671" class="cls-11" d="M47.41,146.28c3.42,0,3.42-2.43,6.83-2.43s3.41,2.43,6.83,2.43c2.35,0,3.08-1.15,4.42-1.87.74-.39,1.57-.59,2.41-.57,3.41,0,3.41,2.43,6.83,2.43,1.2.02,2.37-.38,3.3-1.13.98-.85,2.23-1.31,3.53-1.3,3.41,0,3.41,2.43,6.83,2.43s3.42-2.43,6.83-2.43"/>
  <path id="Path_8672" data-name="Path 8672" class="cls-11" d="M95.2,147.26c-3.41,0-3.41,2.43-6.83,2.43s-3.41-2.43-6.83-2.43-3.41,2.43-6.83,2.43-3.41-2.43-6.83-2.43-3.41,2.43-6.83,2.43-3.41-2.43-6.83-2.43-3.41,2.43-6.83,2.43"/>
  <path class="cls-11" d="M31.15,142.09c.68.43,1.48.77,2.76.77,3.41,0,3.41-2.43,6.83-2.43s3.41,2.43,6.83,2.43,3.41-2.43,6.83-2.43"/>
  <path class="cls-11" d="M31.15,145.52c.68.42,1.48.76,2.76.76,1.2.02,2.37-.38,3.3-1.13.98-.85,2.23-1.32,3.53-1.31,3.42,0,3.42,2.43,6.83,2.43s3.42-2.43,6.83-2.43"/>
  <path class="cls-11" d="M31.5,149.13c.61.33,1.34.57,2.41.57,3.41,0,3.41-2.43,6.83-2.43s3.41,2.43,6.83,2.43,3.41-2.43,6.83-2.43"/>
  <path class="cls-11" d="M88.35,142.86c3.42,0,3.42-2.43,6.83-2.43s3.42,2.43,6.83,2.43,3.41-2.43,6.83-2.43,3.42,2.43,6.83,2.43c.29,0,.56-.02.8-.05"/>
  <path class="cls-11" d="M88.35,146.28c3.42,0,3.42-2.43,6.83-2.43s3.42,2.43,6.83,2.43c2.34,0,3.08-1.15,4.42-1.87.74-.39,1.57-.59,2.41-.57,3.41,0,3.41,2.43,6.83,2.43.27,0,.54-.01.8-.05"/>
  <path class="cls-11" d="M88.35,149.69c3.42,0,3.42-2.43,6.83-2.43s3.42,2.43,6.83,2.43,3.41-2.43,6.83-2.43,3.42,2.43,6.83,2.43c.08,0,.16,0,.23,0"/>
  <path id="Path_8669" data-name="Path 8669" class="cls-14" d="M65.22,143.57c.05.29.14.57.26.84.74-.39,1.57-.59,2.41-.57,3.41,0,3.41,2.43,6.83,2.43,1.2.02,2.37-.38,3.3-1.13.06-.15.1-.31.11-.48,0-.11.01-.22,0-.33-.58-8-6.83-14.35-9.32-16.27-1.48-.2-5,1.08-6.23,1.82.74,1.76,2.33,7.3,2.54,10.54"/>
  <path class="cls-11" d="M61.54,280.13c-6.6-12.06-11.65-24.89-15.05-38.24"/>
  <path class="cls-11" d="M228.09,30.11c25.35,3.01,49.01,11.56,69.73,24.39"/>
  <path class="cls-11" d="M83.18,82.26c8.37-8.79,17.65-16.7,27.7-23.56"/>
  <path class="cls-11" d="M369.05,142.14c2.19,6.07,4.05,12.29,5.56,18.65,3.03,12.76,4.63,26.07,4.63,39.75,0,28.72-7.05,55.8-19.52,79.59"/>
  <path class="cls-11" d="M39.39,166.05c-2.27,11.14-3.47,22.68-3.47,34.49,0,28.72,7.05,55.8,19.52,79.59"/>
  <rect class="cls-10" x="31.15" y="97.85" width="85.32" height="55.82" rx="6.67" ry="6.67"/>
  <rect class="cls-9" x="126.8" y="11.28" width="85.32" height="55.82" rx="6.67" ry="6.67"/>
  <rect class="cls-8" x="297.82" y="67.1" width="85.32" height="55.82" rx="6.67" ry="6.67"/>
  <path class="cls-16" d="M252.57,278.56h-89.55c-3.12,0-5.65-2.53-5.65-5.64h91.51l-.13.42c-.82,2.58,1.11,5.22,3.82,5.22Z"/>
  <path class="cls-16" d="M287.12,184.41l66.09,5.03c3.06.23,5.08,3.3,4.08,6.21l-26.73,77.52c-.58,1.67-2.15,2.79-3.92,2.79h-69.6c-2.57,0-4.39-2.5-3.61-4.94l26-81.42c1.05-3.3,4.24-5.45,7.69-5.18Z"/>
  <path class="cls-12" d="M154.95,273.2c.09-2.74.66-4.17,1.76-6.52h0c.99-2.12,2.33-4.03,3.97-5.66l4.33-1.38c7.92-2.69,16.07-4.71,24.33-6.03,2.56-.41,5.32.04,7.84.65,6.17,1.48,14.33,6.13,17.3,11.3,1.66,2.89,1.66,4.66,1.66,7.36l-61.19.28Z"/>
  <g>
    <path class="cls-14" d="M247.6,273.92c-.17,1.26.15,2.54.93,3.59.01.02.03.03.04.05h-85.54c-2.22,0-4.08-1.56-4.54-3.64h89.12M248.89,272.92h-91.51c0,3.12,2.53,5.64,5.65,5.64h89.55c-2.71,0-4.64-2.64-3.82-5.22l.13-.42h0Z"/>
    <path class="cls-14" d="M283.77,182.78h0c.17,0,.35,0,.53.02l69.86,5.31c1.23.1,2.33.74,3.01,1.78.68,1.03.84,2.3.43,3.46l-28.26,81.94c-.47,1.36-1.75,2.27-3.19,2.27h-73.58c-.97,0-1.85-.45-2.42-1.23-.57-.78-.73-1.76-.44-2.69l.13-.42,27.35-85.64c.92-2.87,3.56-4.8,6.58-4.8M283.77,181.78c-3.41,0-6.47,2.2-7.53,5.5l-27.35,85.64-.13.42c-.82,2.58,1.11,5.22,3.82,5.22h73.58c1.87,0,3.53-1.18,4.14-2.95l28.26-81.94c1.06-3.07-1.07-6.32-4.31-6.57l-69.86-5.31c-.2-.02-.4-.02-.6-.02h0Z"/>
    <g>
      <rect class="cls-7" x="214.36" y="275.01" width="4.39" height="1.99"/>
      <rect class="cls-7" x="221.05" y="275.01" width="4.39" height="1.99"/>
      <rect class="cls-7" x="227.75" y="275.01" width="2.18" height="1.99"/>
    </g>
  </g>
  <line class="cls-7" x1="6.59" y1="280.13" x2="417.63" y2="280.13"/>
  <path class="cls-14" d="M210.01,164.06c0,6.09-4.93,11.02-11.01,11.02-4.99,0-9.21-3.32-10.56-7.88,2.53,1.21,5.39,1.71,7.76.39.29-.16.57-.36.85-.57,3-2.39,6.06-4.85,8.15-8.07.58-.88,1.08-1.81,1.51-2.76,2.04,1.99,3.31,4.78,3.31,7.87Z"/>
  <path class="cls-6" d="M206.69,156.19c-.43.96-.93,1.88-1.51,2.76-2.09,3.22-5.15,5.68-8.15,8.07-.28.22-.56.41-.85.57-2.37,1.32-5.23.82-7.76-.39-.37-.18-.73-.37-1.08-.57-.99-.57-1.9-1.23-2.68-1.91-1.54-1.34-2.81-2.93-3.85-4.64-1.03-1.69-1.84-3.51-2.48-5.35-.17-.48-.33-.98-.48-1.47-.65.37-1.46.51-2.21.36-1.24-.24-2.27-1.16-2.83-2.24-.75-1.43-.73-3.29.27-4.58.74-.96,2.07-1.47,3.27-1.32-.37-4.6.23-9.28,2.27-13.36,1.43-2.87,3.56-5.33,6.11-7,4.37-2.87,9.96-3.44,15.38.15,2.46,1.63,4.2,4.05,5.48,6.6,3.64,7.23,4.54,16.77,1.1,24.32Z"/>
  <path class="cls-6" d="M196.19,167.59c-.26.51-.52,1.04-.72,1.59-1.07,2.78-2.14,5.56-3.21,8.34-.21.55-.84,1.22-.95,1-3.13,2.81-8.48,3.61-13.62,1.66-2.58-.98-4.73-2.5-6.29-4.3.14-.49.37-.99.59-1.44,2.49-5.07,5.09-10.27,8.82-14.35,1.04,1.71,2.31,3.29,3.85,4.64.78.68,1.69,1.34,2.68,1.91,2.77,1.6,6.13,2.48,8.84.97Z"/>
  <path class="cls-14" d="M196.19,167.59c-.26.51-.52,1.04-.72,1.59-1.07,2.78-1.54,5.87-3.21,8.34-.34.5-.95,1-.95,1-.96-1.91-1.97-3.88-2.14-4.4-.82-2.43-1.42-4.95-1.82-7.49,2.77,1.6,6.13,2.48,8.84.97Z"/>
  <path class="cls-2" d="M80.28,280.13c-1.36-3.06-1.76-6.64-1.64-10.01.19-5.45,1.43-10.88,3.66-15.89,1.78-4.02,46.75-75.72,56.15-86.89,2.94-3.49,6.92-7.4,11.89-6.75,5.64.36,20.19,5.35,20.19,5.35-.15.29-1.35-.22-1.47.09-1.23,3.25-.22,6.92,2.33,9.84,1.57,1.81,3.72,3.33,6.29,4.3,5.14,1.96,10.49,1.16,13.62-1.66.64-.56.46-.31.95-1,.53-.66.96-1.4,1.27-2.21.04-.12.09-.24.13-.36,6.94,2.11,9.27,5.82,10.02,7.32.18.38.37.76.53,1.14,9.28,22.5,17.81,45.3,25.58,68.38,22.2-1.24,15.8-1.26,26.48-1.98"/>
  <path class="cls-2" d="M154.88,274.35c.09-2.74.73-5.33,1.83-7.68"/>
  <path class="cls-2" d="M200.59,255.36c-2.05-7.76-4.09-15.53-6.14-23.29-.74-2.84-1.49-5.7-2.13-8.58-.18.33-.36.66-.53.99-3.92,7.4-5.35,15.13-5.65,23.5"/>
  <line class="cls-2" x1="218.73" y1="252.72" x2="230.01" y2="251.88"/>
  <g>
    <path class="cls-2" d="M165.01,259.63c7.92-2.69,16.07-4.71,24.33-6.03,2.56-.41,5.32.04,7.84.65,6.17,1.48,14.33,6.13,17.3,11.3,1.66,2.89,1.66,4.66,1.66,7.36"/>
    <path class="cls-2" d="M191.33,270.79c3.82-.4,8.36,1.17,10.25,2.4"/>
    <path class="cls-2" d="M191.81,265.42c3.38,0,15.93,4.17,17.14,7.78"/>
    <path class="cls-2" d="M193.19,259.87c4.03-1.06,13.99,3.99,16.78,6.92,1.92,2.01,2.79,4.62,2.79,6.13"/>
  </g>
  <path class="cls-2" d="M200.68,148.83v7.59c0,.12,0,.25-.08.35-.06.07-.15.11-.24.14-.53.2-1.1.41-1.67.32s-1.1-.61-.99-1.18"/>
  <path class="cls-7" d="M205.09,148.74c-.25.2-.46.5-.45.82s.32.64.63.56c.11-.03.21-.09.28-.18.27-.3.24-.85-.11-1.05s-.88.15-.77.54"/>
  <path class="cls-7" d="M191.67,147.69c-.06-.12-.24-.15-.33-.06-.29.29-.17.86.2,1.01s.86-.17.86-.58-.49-.73-.87-.56c-.12.17-.17.38-.15.59"/>
  <path class="cls-2" d="M189.49,143.07c1.28-.47,2.62-.75,3.98-.82"/>
  <path class="cls-2" d="M207.59,144.86v-.33c-1.25-.59-2.61-.96-3.98-1.06"/>
  <path class="cls-2" d="M192.34,160.62c1.78,1.57,4.41,2.09,6.65,1.32"/>
  <path class="cls-2" d="M191.79,224.48c-3.92,7.4-5.35,15.13-5.65,23.49"/>
  <path class="cls-14" d="M209.71,138.85c-1.78-.44-3.57-1.12-5.36-1.17-.74-1.57-.74-.98-1.74-3.67-.74,1.86-.64,1.22-1.67,3.6-.87,0-2.93.06-3.81.06-.41-3.16-.3-3.16-.49-6.72-1.14,3.57-.97,3.06-1.81,6.72-4.3.34-8.67.85-12.83,2.02-1.58.44-5.18,1.19-5.29,3.01-.06.95-.06,1.9-.01,2.84-1.28-.31-2.79.21-3.61,1.26-1.01,1.29-1.02,3.14-.27,4.58.57,1.09,1.59,2,2.83,2.24.84.16,1.76-.03,2.44-.51.89,2.89,2.12,5.71,3.49,8.4,1.94,3.79,4.03,8.79,2.17,12.99-1.01,2.28-3.01,4.1-5.37,4.89-1.76.59-3.67.62-5.5.36-5.94-.86-9.84-5.48-12.51-10.51-2.91-5.49-4.36-11.68-4.36-17.88,0-19.22,13.76-34.81,30.74-34.81.53,0,1.06.02,1.58.04h.03c5.11,0,10.43,1.9,14.39,5.13,4.67,3.81,6.39,9.13,6.89,14.98.06.72.12,1.44.06,2.16Z"/>
  <path class="cls-2" d="M176.35,145.48c.11.01.23.03.34.06.3.07.59.19.85.36"/>
  <path class="cls-2" d="M177.84,153.26c.08-.04.16-.09.24-.15.33-.23.59-.53.78-.88"/>
  <path class="cls-2" d="M185.67,254.24c-7.01,1.3-13.92,3.1-20.67,5.39,6.75-2.29,13.66-4.09,20.67-5.39.46-2.02.39-4.17.46-6.26.26-7.19,1.36-13.91,4.15-20.36.46-1.05.95-2.1,1.5-3.14.18-.33.35-.66.53-.99"/>
  <path class="cls-2" d="M172.51,255.36c-7.02.75-12.94,5.18-15.8,11.32"/>
  <path class="cls-2" d="M97.94,251.03l22.88.89-22.88-.89Z"/>
  <path class="cls-2" d="M120.83,251.92c18.24.75,44.2,2.59,51.68,3.44-7.02.75-12.94,5.18-15.8,11.32"/>
  <path class="cls-2" d="M119.81,251.88c6.72-12.68,17.93-30.32,26.36-44.33"/>
</svg>