<?xml version="1.0" encoding="UTF-8"?>
<svg xmlns="http://www.w3.org/2000/svg" xmlns:xlink="http://www.w3.org/1999/xlink" viewBox="0 0 1440 440">
  <defs>
    <style>
      .cls-1 {
        opacity: .64;
      }

      .cls-1, .cls-2, .cls-3, .cls-4, .cls-5, .cls-6 {
        fill: #fff;
      }

      .cls-1, .cls-7, .cls-8, .cls-9, .cls-10, .cls-11, .cls-12, .cls-13, .cls-14, .cls-15, .cls-16, .cls-17, .cls-18, .cls-19, .cls-20, .cls-21, .cls-22, .cls-23, .cls-24, .cls-25, .cls-26, .cls-5, .cls-27, .cls-28, .cls-29, .cls-30, .cls-31, .cls-32, .cls-6, .cls-33, .cls-34, .cls-35, .cls-36, .cls-37 {
        stroke-width: 0px;
      }

      .cls-2, .cls-38, .cls-39, .cls-40, .cls-41 {
        stroke-linecap: round;
        stroke-linejoin: round;
      }

      .cls-2, .cls-39 {
        stroke: #0085a6;
      }

      .cls-38, .cls-40, .cls-41 {
        stroke: #6c9aa6;
      }

      .cls-38, .cls-7, .cls-16, .cls-26, .cls-35 {
        fill: #00b1dd;
      }

      .cls-39, .cls-40, .cls-8, .cls-41 {
        fill: none;
      }

      .cls-3 {
        stroke: #90cedd;
        stroke-width: .5px;
      }

      .cls-3, .cls-4, .cls-26, .cls-5, .cls-27, .cls-37 {
        fill-rule: evenodd;
      }

      .cls-3, .cls-4, .cls-42 {
        stroke-miterlimit: 10;
      }

      .cls-7 {
        opacity: .37;
      }

      .cls-9 {
        fill: url(#radial-gradient);
      }

      .cls-10 {
        fill: url(#radial-gradient-14);
      }

      .cls-11 {
        fill: url(#radial-gradient-13);
      }

      .cls-12 {
        fill: url(#radial-gradient-12);
      }

      .cls-13 {
        fill: url(#radial-gradient-15);
      }

      .cls-14 {
        fill: url(#radial-gradient-11);
      }

      .cls-15 {
        fill: url(#radial-gradient-10);
      }

      .cls-16 {
        opacity: .15;
      }

      .cls-41 {
        stroke-width: 1.22px;
      }

      .cls-4 {
        stroke: #00b1dd;
        stroke-width: .8px;
      }

      .cls-17 {
        fill: url(#radial-gradient-2);
      }

      .cls-18 {
        fill: url(#radial-gradient-3);
      }

      .cls-19 {
        fill: url(#radial-gradient-4);
      }

      .cls-20 {
        fill: url(#radial-gradient-6);
      }

      .cls-21 {
        fill: url(#radial-gradient-9);
      }

      .cls-22 {
        fill: url(#radial-gradient-8);
      }

      .cls-23 {
        fill: url(#radial-gradient-5);
      }

      .cls-24 {
        fill: url(#radial-gradient-7);
      }

      .cls-25 {
        opacity: .31;
      }

      .cls-25, .cls-43 {
        mix-blend-mode: multiply;
      }

      .cls-27, .cls-32 {
        fill: #90cedd;
      }

      .cls-42 {
        fill: #fbb216;
        stroke: #fff;
        stroke-width: .76px;
      }

      .cls-44 {
        isolation: isolate;
      }

      .cls-43 {
        opacity: .58;
      }

      .cls-29 {
        fill: #82bbc4;
      }

      .cls-30 {
        fill: #e0dcd3;
      }

      .cls-31 {
        fill: #bfdaf7;
      }

      .cls-33 {
        fill: #e8e8e8;
      }

      .cls-34 {
        fill: #ebe9e3;
      }

      .cls-36 {
        fill: #0085a6;
      }
    </style>
    <radialGradient id="radial-gradient" cx="457.55" cy="408.23" fx="457.55" fy="408.23" r="124" gradientUnits="userSpaceOnUse">
      <stop offset=".31" stop-color="#fff"/>
      <stop offset="1" stop-color="#f8f7f5" stop-opacity="0"/>
    </radialGradient>
    <radialGradient id="radial-gradient-2" cx="459.14" cy="406.82" fx="459.14" fy="406.82" r="57.17" xlink:href="#radial-gradient"/>
    <radialGradient id="radial-gradient-3" cx="459.35" cy="406.5" fx="459.35" fy="406.5" r="41.87" xlink:href="#radial-gradient"/>
    <radialGradient id="radial-gradient-4" cx="459.41" cy="406.42" fx="459.41" fy="406.42" r="38.26" xlink:href="#radial-gradient"/>
    <radialGradient id="radial-gradient-5" cx="459.39" cy="406.44" fx="459.39" fy="406.44" r="39.55" xlink:href="#radial-gradient"/>
    <radialGradient id="radial-gradient-6" cx="459.28" cy="406.61" fx="459.28" fy="406.61" r="52.24" xlink:href="#radial-gradient"/>
    <radialGradient id="radial-gradient-7" cx="458.79" cy="407.23" fx="458.79" fy="407.23" r="115.97" xlink:href="#radial-gradient"/>
    <radialGradient id="radial-gradient-8" cx="457.55" cy="411.82" fx="457.55" fy="411.82" r="293.49" xlink:href="#radial-gradient"/>
    <radialGradient id="radial-gradient-9" cx="457.55" cy="411.82" fx="457.55" fy="411.82" r="293.49" xlink:href="#radial-gradient"/>
    <radialGradient id="radial-gradient-10" cx="457.55" cy="411.82" fx="457.55" fy="411.82" r="293.49" xlink:href="#radial-gradient"/>
    <radialGradient id="radial-gradient-11" cx="457.55" cy="411.82" fx="457.55" fy="411.82" r="293.49" xlink:href="#radial-gradient"/>
    <radialGradient id="radial-gradient-12" cx="457.55" cy="411.82" fx="457.55" fy="411.82" r="293.49" xlink:href="#radial-gradient"/>
    <radialGradient id="radial-gradient-13" cx="457.55" cy="411.82" fx="457.55" fy="411.82" r="293.49" xlink:href="#radial-gradient"/>
    <radialGradient id="radial-gradient-14" cx="457.55" cy="411.82" fx="457.55" fy="411.82" r="293.49" xlink:href="#radial-gradient"/>
    <radialGradient id="radial-gradient-15" cx="457.55" cy="411.82" fx="457.55" fy="411.82" r="293.49" xlink:href="#radial-gradient"/>
  </defs>
  <g class="cls-44">
    <g id="sun">
      <g>
        <g>
          <path class="cls-9" d="M459.7,405.61l-72.54,23.57-32.79,10.65h-154.96c-.29-2.25-.56-4.51-.79-6.78h.01l185.26-19.47,75.81-7.97Z"/>
          <polygon class="cls-17" points="459.7 405.61 421.69 439.83 400.43 439.83 459.7 405.61"/>
          <polygon class="cls-18" points="459.7 405.61 444.46 439.83 434.84 439.83 459.7 405.61"/>
          <polygon class="cls-19" points="459.7 405.61 459.7 439.83 452.43 439.83 459.7 405.61"/>
          <polygon class="cls-23" points="459.7 405.61 474.93 439.83 466.97 439.83 459.7 405.61"/>
          <polygon class="cls-20" points="497.71 439.83 484.56 439.83 459.7 405.61 497.71 439.83"/>
          <polygon class="cls-24" points="565.03 439.83 518.97 439.83 459.7 405.61 533.52 429.6 565.03 439.83"/>
          <path class="cls-22" d="M720.78,378.18c.94,9.01,1.42,18.17,1.42,27.44s-.48,18.42-1.42,27.44h-.01l-261.07-27.44,261.07-27.44h.01Z"/>
          <path class="cls-21" d="M709.44,324.47l-.1.03-249.65,81.11,227.33-131.25.07-.04c9.11,15.75,16.63,32.54,22.34,50.15Z"/>
          <path class="cls-15" d="M654.83,229.93l-.05.04-195.07,175.65,154.29-212.36.05-.06c14.85,10.81,28.52,23.13,40.78,36.74Z"/>
          <path class="cls-14" d="M566.51,165.72l-.04.09-106.76,239.81,54.57-256.77v-.06c18.19,3.84,35.67,9.55,52.23,16.94Z"/>
          <path class="cls-12" d="M459.7,143.11v262.5l-54.57-256.77v-.06c17.59-3.71,35.85-5.67,54.57-5.67Z"/>
          <path class="cls-11" d="M352.93,165.8l106.76,239.81-154.29-212.36-.05-.06c14.76-10.74,30.68-19.96,47.54-27.47l.04.09Z"/>
          <path class="cls-10" d="M459.7,405.61l-227.33-131.25-.07-.04c9.21-15.93,20.04-30.8,32.28-44.4l.05.04,195.07,175.65Z"/>
          <path class="cls-13" d="M459.7,405.61l-261.07-27.44h-.01c1.91-18.55,5.76-36.51,11.33-53.71l.1.03,249.65,81.11Z"/>
        </g>
        <path class="cls-42" d="M400.43,439.83h128.89c1.64-3.28,3.05-6.7,4.2-10.23,1.67-5.08,2.82-10.39,3.39-15.87.29-2.67.43-5.38.43-8.12s-.14-5.45-.43-8.12c-.57-5.48-1.72-10.78-3.39-15.86h0c-1.7-5.21-3.94-10.16-6.66-14.8-2.73-4.69-5.96-9.06-9.6-13.05s-7.69-7.6-12.09-10.75c-4.37-3.13-9.07-5.81-14.06-7.98-4.88-2.13-10.03-3.76-15.38-4.85-4.95-1-10.07-1.52-15.32-1.52-.24,0-.47,0-.71.01-5.48.04-10.82.66-15.97,1.81-5.3,1.16-10.39,2.88-15.21,5.09-4.9,2.22-9.52,4.95-13.8,8.12-4.3,3.18-8.25,6.79-11.8,10.78-3.54,3.97-6.66,8.31-9.32,12.95h0c-2.63,4.6-4.8,9.48-6.44,14.6-1.61,5-2.72,10.22-3.27,15.6-.27,2.62-.41,5.28-.41,7.97s.14,5.35.41,7.97c.55,5.38,1.66,10.6,3.27,15.6,1.18,3.68,2.63,7.24,4.34,10.65"/>
      </g>
    </g>
    <g id="cloud_back" data-name="cloud back">
      <path class="cls-34" d="M1440,285.29v154.71H0v-133.4c19.18-7.72,40.13-11.97,62.07-11.97,47.26,0,89.91,19.71,120.19,51.35,7.4-1.48,15.04-2.26,22.87-2.26,25.76,0,49.55,8.4,68.79,22.6,27.54-17.68,60.3-27.94,95.46-27.94,37.59,0,72.43,11.74,101.08,31.73,33.55-33.41,79.81-54.07,130.9-54.07s99.47,21.62,133.19,56.4c21.6-13.5,47.12-21.31,74.47-21.31,45.27,0,85.54,21.38,111.28,54.59,34.02-39.55,84.42-64.6,140.68-64.6,39.63,0,76.34,12.43,106.48,33.6,29.01-24.65,66.58-39.53,107.63-39.53,20.15,0,39.46,3.59,57.33,10.15,22.32-35.99,62.14-59.98,107.58-60.05Z"/>
    </g>
    <g id="chimney">
      <path id="Path_9298" data-name="Path 9298" class="cls-33" d="M1044.28,136.34c-7.11-2.68-15.14-2.93-22.45-.67-5.83,1.8-10.62,5.49-13.37,10.28-.75,2.1-3.32,3.28-5.75,2.63-.12-.03-.24-.07-.36-.11-7.65-1.62-15.58,1.55-19.11,7.62-1.95,3.57-1.06,4.89,3.62,5.15,2.13.12,4.28.06,6.42.05,66.2-.1,132.39-.2,198.59-.29,23.19-.02,46.39.21,69.58.27,2.39,0,4.79-.34,7.23-.52-.82-6.39-7.48-11-14.89-10.29-.12.01-.24.02-.36.04-2.74.55-5.53-.73-6.54-2.99-4.03-7.18-12.66-11.58-21.9-11.16-2.96.26-5.84-.95-7.42-3.13-11.8-14.72-35.19-18.4-52.24-8.21-.24.14-.47.29-.71.43-2.31,1.63-5.4,2.2-8.28,1.53-6.51-1.52-13.46.26-17.98,4.58-2.59,2.38-20.01,6.2-26.73-3.07-13.09-14.73-37.53-17.5-54.59-6.2-3.92,2.6-7.24,5.82-9.76,9.49-.95,1.39-1.85,2.8-3.01,4.56"/>
      <path id="Path_9298-2" data-name="Path 9298" class="cls-33" d="M1219.55,271.51c3.75-1.51,7.99-1.65,11.85-.38,3.08,1.02,5.6,3.09,7.05,5.79.39,1.18,1.75,1.85,3.04,1.48.06-.02.13-.04.19-.06,4.04-.91,8.22.87,10.08,4.29,1.03,2.01.56,2.75-1.91,2.9-1.13.07-2.26.03-3.39.03-34.93-.06-69.85-.11-104.78-.16-12.24,0-24.48.12-36.71.15-1.26,0-2.53-.19-3.81-.29.43-3.6,3.95-6.19,7.85-5.8.06,0,.13.01.19.02,1.45.31,2.92-.41,3.45-1.69,2.13-4.05,6.68-6.52,11.55-6.28,1.56.15,3.08-.54,3.92-1.76,6.23-8.29,18.57-10.36,27.57-4.63.13.08.25.16.37.24,1.22.92,2.85,1.24,4.37.86,3.44-.85,7.1.14,9.48,2.58,1.37,1.34,10.56,3.49,14.1-1.73,6.91-8.29,19.8-9.86,28.81-3.49,2.07,1.46,3.82,3.28,5.15,5.34.5.78.98,1.58,1.59,2.57"/>
      <path id="Path_9303" data-name="Path 9303" class="cls-33" d="M1176.58,310.55c3.08-.52,6.2-.89,9.33-1.1,7.47-.15,14.36,3.44,16.26,8.21,1.05,2.66.36,3.32-3.79,3.33-17.42.01-34.84-.03-52.26-.03-11.06,0-22.12.05-33.18.03-4.47,0-5.11-.82-3.01-3.49,2.98-3.8,8.91-5.79,16.04-5.12,2.37.22,3.46-.08,4.31-1.61,3.79-6.78,11.23-10.73,22.1-11.01,10.69-.28,18.43,3.23,23.15,9.63.3.41.7.78,1.06,1.17"/>
      <path class="cls-39" d="M971.33,163.63c1.33.11,8.87-20.13,21.61-16.02,13.74,4.44,19.29-19.15,31.38-17.86,11.63,1.24,15.19,13.75,15.19,13.75,0,0,6.05-32.68,33.04-36.93,33.72-5.3,40.16,26.05,36.54,33.67-4.73,9.96-9.55-2.47-.92-6.14,6.31-2.68,14.02-.85,20.56.35,1.51.28,18.56,6.43,16.33,9.17-.41.5-.94.85-1.53,1.06-2.85,1-5.61-1.79-4.88-4.72,1.5-5.98,3.4-13.31,8.67-16.53,19.28-11.77,40.08,7.4,41.36,15.04.32,1.89.12,5.85-3,5.11-.81-.19-1.48-.76-1.93-1.47-4.92-7.73-5.33-22.24,4.36-26.2,5.72-2.34,12.31-2.43,18.09-.25,4.64,1.75,8.6,4.91,11.5,8.91,2.73,3.76,4.85,8.67,9.5,10.44,4.19,1.6,9.05-.36,12.86,2.47,3.95,2.94,5.04,7.5,10.7,7.81,6.9.38,12.88-2.71,19.74.5,4.35,2.03,11.69,7.34,9.85,13.16-1.28,4.06-4.87,3.05-8.57,3.11-7.13.12-14.27.23-21.4.33-18.62.26-37.23.48-55.85.68-43.21.46-86.43.82-129.65,1.01-29.4.13-58.9.69-88.29-.24-1.75-.06-3.51-.1-5.26-.24Z"/>
      <path class="cls-40" d="M1089.49,287.14c1.42-3,3.43-6.82,6.14-8.8,2.63-1.93,5.12-.69,8.17-.96,5.49-.48,7.41-7.89,12.29-10.45,3.75-1.97,8.97-.19,10.74,3.66.37.8.59,1.78.15,2.55-.76,1.32-3,.9-3.76-.42-.76-1.32-.44-2.99.08-4.42,2.13-5.76,7.57-10.17,13.65-11.05s12.55,1.79,16.23,6.71c4.56-4.6,12.84-2.58,17.24,2.18,1.69,1.83,3.16,4.07,5.5,4.9,2.29.81,4.87.01,6.87-1.36s3.56-3.28,5.27-4.99c4.32-4.34,5.38-6.91,11.24-8.68,8.57-2.59,19.72.8,23.25,8.72,1.19,2.66,1.41,6.8-1.42,7.48-.45-1.41.39-2.98,1.6-3.82s2.73-1.11,4.19-1.31c5.75-.8,12.79-.34,15.66,4.71,1.03,1.82,1.22,5.86,3.48,5.93,8.29.25,15.93,8.7,11.96,9.67-2.62.64-10.86-1.07-13.64-1.16-5.01-.16-10.04.29-15.05.36-11.72.17-23.44.32-35.16.43-23.44.23-46.88.35-70.32.36-5.86,0-11.72,0-17.58-.02-1.77,0-12.3.16-16.88-.05.03-.05.05-.11.08-.16Z"/>
      <path class="cls-40" d="M1123.38,312.34c8-9.61,10.85-15.39,25.79-15.4,19.03,0,24.88,5.73,27.12,9.81.75,1.37,1.15,2.84,1.54,4.29.55,2.04,1.1,4.14.52,6.18-.28.98-1.3,2.11-2.56,1.83-1.19-.27-1.33-1.5-1.12-2.43,1.49-6.42,7.88-11.24,16.68-9.66,8.27,1.49,18.94,7.99,21.97,14.03-22.06,0-110.4,1.13-110.4,1.13-2.88-4.07,14.37-13.09,20.45-9.78Z"/>
      <g>
        <path class="cls-38" d="M1287.76,157.5l73.95,188.75c2.76,7.05-2.45,15.59-11.63,19.08-9.18,3.49-18.87.61-21.63-6.44-.13-.02-64.44-192.53-64.57-192.71.48-1.04,3.44-7.16,10.66-9.52,6.55-2.15,12.04.29,13.23.85Z"/>
        <line class="cls-8" x1="1292.38" y1="165.59" x2="1290.51" y2="160.93"/>
        <line class="cls-8" x1="1264.01" y1="170.57" x2="1265.59" y2="175.25"/>
        <path class="cls-1" d="M1265.62,166.39c.12.17,47.64,140.83,66.87,197.56-1.82-1.29-3.23-3-4.04-5.06-.12,0-64.43-192.53-64.57-192.71.49-1.03,3.44-7.16,10.67-9.52.09-.03.18-.06.28-.09-6.34,2.65-8.78,8.74-9.2,9.83Z"/>
        <path class="cls-25" d="M1361.71,346.26l-70.97-181.16c.59.16,1.15.32,1.64.5l-1.87-4.66c-.48-.11-.99-.2-1.51-.28l-1.23-3.15c-.77-.36-3.36-1.51-6.86-1.69.86.29,1.48.58,1.8.73l1.48,3.77c-2.34.05-4.89.42-7.55,1.29-6.02,1.97-10.07,5.72-12.62,8.97l1.58,4.68c1.87-3.03,5.68-7.7,12.29-9.85,2.83-.93,5.5-1.18,7.88-1.08l75.01,191.45.14.39c1.67-3.2,2.06-6.72.81-9.91Z"/>
        <path class="cls-41" d="M1351.02,317.83c-3.93-1.35-10.41-2.61-17.71-.22-8.07,2.62-12.73,8.32-15.01,12.03"/>
      </g>
      <g class="cls-43">
        <path class="cls-28" d="M1308.77,302.86c1.92-4.27,7.07-11.49,29.9-15.3l-2.34-5.73-34.26,1.52,6.71,19.51Z"/>
      </g>
      <path class="cls-29" d="M1214.45,399.25v-10.4c3.81-4.29,3.4-6.53,2.64-8.28-.52-1.09-1.48-1.9-2.64-2.22v-14.37h2.64v-2.18h-2.64v-10.76c3.77-4.26,3.35-6.49,2.59-8.23-.51-1.07-1.45-1.88-2.59-2.21v-15.03h1.6v-4.57h-20.81v4.57h1.6v.05h-1.9c-1.1,1.69-1.62,3.69-1.5,5.71.2,1.84,1.57,3.35,3.38,3.72v25.75c-.9.48-1.6.82-2,1h-.64v2.18h.75c-1.1,1.69-1.62,3.69-1.5,5.71.2,1.84,1.57,3.35,3.38,3.72v25.18c-.51.27,17.61.67,17.61.67Z"/>
      <path id="Path_9302" data-name="Path 9302" class="cls-29" d="M1263.05,384.25c-.24-11.26-.63-43.71-.89-66.02h.06l-.11-5.13h0c-.02-2.07-.05-4.06-.07-5.93h0c-.12-10.12-.19-17-.19-17h2.03v-4.12h-24.88v4.12h2.04c-.26,19.38-.51,53.97-.98,75.43h.07c-.19,14.46-.38,26.36-.98,39.74h-.08l-.04.47h.1v.05h24.65c-.31-7.02-.55-14.22-.71-21.61"/>
    </g>
    <g id="wind">
      <g>
        <path class="cls-35" d="M317.92,372.74l-67.22-81.08-4.3,2.67,12.62,20.54,56.83,57.52s2.77,2.77,2.08.35Z"/>
        <path class="cls-37" d="M251.62,292.77s-3.43,3.73-1.23,8.06-3.55-5.71-3.55-5.71l3.85-3.46.92,1.11Z"/>
        <path class="cls-26" d="M280.45,197.11l-20.6,72.73-10.05,17.32c-.83,0-5.54,1.73-5.54,1.73.34-1.63,35-92.51,35-92.51h0c.53-.53,1.42,0,1.19.72Z"/>
        <polygon class="cls-5" points="231.49 291.64 231.49 298.64 251.98 289.6 249.81 286.91 231.49 291.64"/>
        <path class="cls-35" d="M149.18,304.26l95.08-11.8-1.04-3.81h-23.71l-72.96,13.29h0c0,1.41,1.23,2.49,2.63,2.32Z"/>
        <polygon class="cls-37" points="242.88 298.69 249.82 292.45 251.98 289.6 231.49 298.64 242.88 298.69"/>
        <circle class="cls-6" cx="250.1" cy="289.92" r="2.86"/>
        <path class="cls-4" d="M248.62,437.28h-8.75l.23-132.54v-6.06s.01-.81.01-.81c0-1.31.9-.94,2.2-1.08h1.5c.52-.06.95-.11,1.29-.1.65.03.98.31.99,1.31l.11,6.28,2.42,133Z"/>
        <path class="cls-37" d="M239.76,305.17c1.58-2,3.71-4.3,5.07-3.78,1.4.53,1.35,3.8,1.57,3.78.17-.01.29-1.9,0-10.83l-6.64,1.44v9.39Z"/>
      </g>
      <g>
        <path class="cls-32" d="M911.81,369.09l-36.83-44.43-2.36,1.46,6.91,11.26,31.14,31.52s1.52,1.52,1.14.19Z"/>
        <path class="cls-37" d="M875.48,325.27s-1.88,2.05-.67,4.42c1.21,2.37-1.94-3.13-1.94-3.13l2.11-1.9.5.61Z"/>
        <path class="cls-27" d="M891.28,272.85l-11.29,39.85-5.51,9.49c-.45,0-3.04.95-3.04.95.19-.89,19.18-50.69,19.18-50.69h0c.29-.29.78,0,.65.4Z"/>
        <polygon class="cls-5" points="864.46 324.64 864.46 328.48 875.69 323.53 874.49 322.05 864.46 324.64"/>
        <path class="cls-32" d="M819.35,331.56l52.1-6.47-.57-2.09h-12.99l-39.98,7.28h0c0,.77.67,1.37,1.44,1.27Z"/>
        <polygon class="cls-37" points="870.7 328.51 874.5 325.09 875.69 323.53 864.46 328.48 870.7 328.51"/>
        <circle class="cls-6" cx="874.65" cy="323.7" r="1.56"/>
        <path class="cls-3" d="M873.06,438.38h-2.67c-.78,0-1.41-.63-1.41-1.41l.19-107.05c0-.5.12-.99.34-1.43.29-.59.53-1.15,1.06-1.21l.99-.13c.83-.09.88.15.89.98l2.01,108.82c.01.79-.62,1.43-1.41,1.43Z"/>
        <path class="cls-37" d="M868.99,332.06c.86-1.1,2.03-2.35,2.78-2.07.77.29.74,2.08.86,2.07.09,0,.16-1.04,0-5.93l-3.64.79v5.15Z"/>
      </g>
      <g>
        <path class="cls-32" d="M844.62,346.17l-36.83-44.43-2.36,1.46,6.91,11.26,31.14,31.52s1.52,1.52,1.14.19Z"/>
        <path class="cls-37" d="M808.29,302.35s-1.88,2.05-.67,4.42c1.21,2.37-1.94-3.13-1.94-3.13l2.11-1.9.5.61Z"/>
        <path class="cls-27" d="M824.09,249.93l-11.29,39.85-5.51,9.49c-.45,0-3.04.95-3.04.95.19-.89,19.18-50.69,19.18-50.69h0c.29-.29.78,0,.65.4Z"/>
        <polygon class="cls-5" points="797.26 301.73 797.26 305.56 808.49 300.61 807.3 299.14 797.26 301.73"/>
        <path class="cls-32" d="M752.16,308.64l52.1-6.47-.57-2.09h-12.99l-39.98,7.28h0c0,.77.67,1.37,1.44,1.27Z"/>
        <polygon class="cls-37" points="803.5 305.59 807.31 302.18 808.49 300.61 797.26 305.56 803.5 305.59"/>
        <circle class="cls-6" cx="807.46" cy="300.79" r="1.56"/>
        <path class="cls-3" d="M805.87,420.46h-2.67c-.78,0-1.41-.63-1.41-1.41l.19-112.9c0-.69.23-.88.65-1.43.11-.14.47-.41.71-.44l1.01-.11c.83-.09.9.21.92,1.04l2.01,113.82c.01.79-.62,1.43-1.41,1.43Z"/>
        <path class="cls-37" d="M801.8,309.14c.86-1.1,2.03-2.35,2.78-2.07.77.29.74,2.08.86,2.07.09,0,.16-1.04,0-5.93l-3.64.79v5.15Z"/>
      </g>
    </g>
    <g id="cloud_front" data-name="cloud front">
      <path class="cls-30" d="M1440.2,309.27v130.73H.2v-91.49c33.37.34,66.31,15.07,88.84,43.12,77.19-36.05,168.34-23.55,232.99,31.93,35.9-32.06,85.35-44.24,132.04-32.51,8.49-10.93,19.11-20.03,31.21-26.75,49.65-27.6,112.27-9.72,139.87,39.93,75-48.34,173.17-40.03,238.97,20.24,45.62-14.21,94.99-10.08,137.61,11.53,6.15-18.23,16.66-34.69,30.6-47.95,47.34-44.98,122.18-43.06,167.16,4.28,37.59-19.75,80.87-25.86,122.45-17.28,26.15-40.19,70.46-64.76,118.26-65.78Z"/>
    </g>
    <g id="solar">
      <polygon class="cls-36" points="180.88 379.09 166.27 440 159.39 440 173.99 379.18 180.88 379.09"/>
      <polygon class="cls-36" points="217.91 416.7 214.94 401.81 214.94 401.81 214.93 401.78 205.05 352.25 109.02 352.26 121.88 416.71 140.12 416.71 140.12 416.71 140.29 416.71 160.7 416.7 160.77 416.7 160.77 416.7 181.09 416.7 181.23 416.7 181.23 416.7 201.51 416.7 201.51 416.7 201.69 416.7 201.69 416.7 217.91 416.7"/>
      <polygon class="cls-35" points="219.55 415.42 123.52 415.44 110.67 352.26 206.7 352.25 219.55 415.42"/>
      <g>
        <polygon class="cls-31" points="141.95 415.43 141.76 415.43 128.94 352.43 129.13 352.43 141.95 415.43"/>
        <polygon class="cls-31" points="162.41 415.43 162.23 415.43 149.41 352.43 149.59 352.43 162.41 415.43"/>
        <polygon class="cls-31" points="182.87 415.43 182.69 415.43 169.87 352.42 170.05 352.42 182.87 415.43"/>
        <polygon class="cls-31" points="203.34 415.42 203.15 415.42 190.33 352.42 190.52 352.42 203.34 415.42"/>
        <polygon class="cls-31" points="209.75 367.24 113.72 367.25 113.68 367.08 209.71 367.07 209.75 367.24"/>
        <polygon class="cls-31" points="213.17 384.04 117.14 384.05 117.1 383.88 213.13 383.86 213.17 384.04"/>
        <polygon class="cls-31" points="216.58 400.83 120.56 400.85 120.52 400.67 216.55 400.66 216.58 400.83"/>
      </g>
      <g>
        <polygon class="cls-31" points="132.41 369.02 130.06 367.17 131.66 365.31 134.01 367.17 132.41 369.02"/>
        <polygon class="cls-31" points="135.85 385.9 133.49 384.05 135.09 382.19 137.45 384.05 135.85 385.9"/>
        <polygon class="cls-31" points="152.97 369.02 150.61 367.16 152.21 365.31 154.57 367.16 152.97 369.02"/>
        <polygon class="cls-31" points="156.4 385.9 154.05 384.04 155.65 382.19 158 384.04 156.4 385.9"/>
        <polygon class="cls-31" points="173.43 369.02 171.08 367.16 172.67 365.3 175.03 367.16 173.43 369.02"/>
        <polygon class="cls-31" points="193.71 369.01 191.36 367.16 192.95 365.3 195.31 367.16 193.71 369.01"/>
        <polygon class="cls-31" points="139.25 402.61 136.89 400.76 138.49 398.9 140.85 400.76 139.25 402.61"/>
        <polygon class="cls-31" points="159.8 402.61 157.45 400.75 159.05 398.9 161.4 400.75 159.8 402.61"/>
        <polygon class="cls-31" points="180.27 402.61 177.91 400.75 179.51 398.89 181.86 400.75 180.27 402.61"/>
        <polygon class="cls-31" points="200.55 402.6 198.19 400.75 199.79 398.89 202.14 400.75 200.55 402.6"/>
        <polygon class="cls-31" points="197.15 385.9 194.79 384.04 196.39 382.18 198.74 384.04 197.15 385.9"/>
        <polygon class="cls-31" points="176.87 385.9 174.51 384.04 176.11 382.18 178.46 384.04 176.87 385.9"/>
      </g>
      <path class="cls-28" d="M165.13,416.71h6.92l-2.67,10.29c.17-.93.56-3.81-1.05-6.77-1.01-1.86-2.39-2.97-3.2-3.52Z"/>
    </g>
    <g id="hand">
      <path class="cls-2" d="M1440,191.7c-18.15,8.35-34.31,15.42-40.91,17.98-8.24,3.2-37.63,13.22-44.8,11.83-8.41-1.63-16.65-4.2-24.49-7.65-5.56-2.45-11.07-5.38-17.11-5.98-3.51-.35-7.04.1-10.55.4-11.46.99-23.05.42-34.36-1.71-.98-.18-2.11-.34-2.87.3-1.1.94-.56,2.72.19,3.96,3.8,6.35,10.88,10.62,18.27,11.01-4.8,1.72-9.6,4.96-10.85,9.91-1.25,4.95,3.2,11.07,8.12,9.73-3.29,3.08-3.95,8.58-1.49,12.36,2.46,3.77,7.76,5.39,11.91,3.62-3.07,2.11-4.5,6.34-3.33,9.88s4.84,6.08,8.56,5.94c-2.5,3.77-.12,9.21,3.75,11.56,3.87,2.34,8.66,2.43,13.18,2.41,8.38-.03,16.8-.2,25.05-1.63,3.54-.62,7.13-1.5,10.13-3.48,5.15-3.4,7.83-9.49,12.33-13.72,5.53-5.21,13.28-7.18,20.69-8.83,18.82-4.18,38.79-9.1,58.56-15"/>
    </g>
    <g id="hand_shade" data-name="hand shade">
      <path class="cls-16" d="M1339.79,284.01c-.19.03-.38.07-.56.1-8.03,1.39-16.21,1.55-24.36,1.59-4.4.02-9.05-.06-12.81-2.34-3.77-2.28-6.08-7.56-3.65-11.23-3.62.14-7.18-2.34-8.32-5.77-1.14-3.44.25-7.55,3.24-9.6-4.03,1.72-9.19.15-11.58-3.52-2.4-3.67-1.75-9.02,1.45-12.02-4.78,1.31-9.11-4.64-7.9-9.45.85-3.35,3.36-5.9,6.39-7.7.71-.37,1.44-.72,2.18-1.04,3.4-1.5,7.05-2.54,10.64-3.39,4.39-1.04,8.78-2.2,13.08-3.54,3.42-1.07,6.6-2.97,10.31-2.51.29.04.55.1.78.17,2.82.93.98,4.69,2.72,7.49,1.58,2.54,4.65,3.97,5.38,6.92.65,2.61-.86,5.38-.67,8.02.24,3.37,1.48,6.6,4.7,8.13,4.41,2.09,7.28,5.5,4.59,10.5-1.05,1.95-2.6,3.73-2.89,5.93-.27,1.99.56,3.94,1.37,5.78.88,2,1.78,4.03,3.11,5.76.95,1.25,2.11,2.32,2.97,3.64.86,1.31,1.39,2.96.9,4.45-.26.8-.47,1.57-.67,2.3-.13.46-.25.91-.39,1.35Z"/>
      <path class="cls-7" d="M1318.43,211.04c-1.11.97-10.44,4.04-13.57,5.01-3.94,1.23-7.97,2.29-11.98,3.24-3.29.78-8.6,2.53-7.94,2.29-6.58-.34-12.89-4.14-16.27-9.8-.66-1.1-1.14-2.69-.16-3.53.67-.58,1.68-.44,2.56-.27,10.06,1.89,20.39,2.4,30.6,1.52,3.13-.27,6.27-.67,9.39-.36,2.55.26,4.99.98,7.38,1.89Z"/>
      <g>
        <path class="cls-2" d="M1283.37,221.85c15.1-2.7,27.87-7.99,33.71-9.34"/>
        <path class="cls-2" d="M1280.64,241.48c12.54-2.88,19.04-3.96,31.68-7.92"/>
        <path class="cls-2" d="M1291.06,257.46c10.88-1.23,14.48-1.16,25.35-2.39"/>
        <path class="cls-2" d="M1296.3,273.28c7.4-.64,12.68-.7,20.08-1.34,2.88-.25,5.84-.48,8.58.41"/>
      </g>
    </g>
    <g id="chimney_mask" data-name="chimney mask">
      <path class="cls-35" d="M1309.98,214.22c-1.35.47-2.75.92-4.15,1.36-8.28,2.57-17.01,4.57-21.66,5.56-.67.15-1.26.27-1.75.38-2.25-6.73-4.39-13.13-6.36-19.02l1.77-.12,22.23-1.54,4.56-.31,5.36,13.69Z"/>
      <path class="cls-38" d="M1282.42,221.57c-2.25-6.73-4.39-13.13-6.36-19.02"/>
      <line class="cls-38" x1="1304.62" y1="200.58" x2="1309.98" y2="214.27"/>
      <path class="cls-1" d="M1284.17,221.14c-.67.15-1.26.27-1.75.38-2.25-6.73-4.39-13.13-6.36-19.02l1.77-.12c1.95,5.79,4.08,12.09,6.34,18.76Z"/>
      <path class="cls-25" d="M1309.98,214.22c-1.35.47-2.75.92-4.15,1.36l-5.77-14.74,4.56-.31,5.36,13.69Z"/>
      <path class="cls-8" d="M1314.08,212.72c-1.31.51-2.68,1.01-4.09,1.5h-.01c-1.35.47-2.75.92-4.15,1.36-8.28,2.57-17.01,4.57-21.66,5.56-.67.15-1.26.27-1.75.38-1.05.21-1.65.33-1.65.33l-5.68-19.28.97-.07,1.77-.12,22.23-1.54,4.56-.31,3.29-.23,6.17,12.42Z"/>
      <path class="cls-40" d="M1302.27,192.89c-3.22-1.11-8.52-2.14-14.5-.18-6.61,2.14-10.42,6.82-12.29,9.85"/>
    </g>
  </g>
</svg>