<svg id="Group_3204" data-name="Group 3204" xmlns="http://www.w3.org/2000/svg" xmlns:xlink="http://www.w3.org/1999/xlink" width="82.982" height="22" viewBox="0 0 82.982 22">
  <defs>
    <clipPath id="clip-path">
      <rect id="Rectangle_2589" data-name="Rectangle 2589" width="82.982" height="22" fill="none"/>
    </clipPath>
  </defs>
  <g id="Group_3203" data-name="Group 3203" clip-path="url(#clip-path)">
    <path id="Path_8126" data-name="Path 8126" d="M26.535,4.4a.345.345,0,0,0-.342.293L24.216,17.229a.321.321,0,0,0,.267.367.405.405,0,0,0,.05,0h2.344a.348.348,0,0,0,.343-.293l.58-3.682a.347.347,0,0,1,.343-.292h2.131a5.056,5.056,0,0,0,4.991-4.28,4.1,4.1,0,0,0-4.3-4.654Zm2.279,2.8h1.7c1.4,0,1.862.829,1.717,1.745a1.959,1.959,0,0,1-2.213,1.594H28.287Zm11.219.852a5.291,5.291,0,0,0-4.992,3.786S33.9,15.2,36.475,17.044a4.392,4.392,0,0,0,5.071-.11l-.046.3a.322.322,0,0,0,.268.367.389.389,0,0,0,.049,0h2.225a.348.348,0,0,0,.343-.293l1.354-8.585a.323.323,0,0,0-.267-.368.421.421,0,0,0-.05,0H43.2a.347.347,0,0,0-.342.293l-.073.462A3.868,3.868,0,0,0,40.033,8.05Zm.073,2.712a2.26,2.26,0,0,1,.7.1,1.967,1.967,0,0,1,1.347,2.23,2.492,2.492,0,0,1-2.5,2.138,2.3,2.3,0,0,1-.7-.1A1.97,1.97,0,0,1,37.6,12.9,2.5,2.5,0,0,1,40.106,10.762Z" fill="#003087"/>
    <path id="Path_8127" data-name="Path 8127" d="M58.584,4.4a.346.346,0,0,0-.342.293L56.265,17.229a.321.321,0,0,0,.267.367.421.421,0,0,0,.05,0h2.344a.348.348,0,0,0,.343-.293l.581-3.682a.345.345,0,0,1,.342-.292h2.132a5.056,5.056,0,0,0,4.99-4.28,4.1,4.1,0,0,0-4.3-4.654Zm2.279,2.8h1.706c1.4,0,1.861.829,1.716,1.745a1.958,1.958,0,0,1-2.213,1.594H60.337Zm11.219.852a5.291,5.291,0,0,0-4.992,3.786s-1.138,3.361,1.434,5.208a4.394,4.394,0,0,0,5.072-.11l-.047.3a.322.322,0,0,0,.268.367.4.4,0,0,0,.049,0h2.226a.346.346,0,0,0,.342-.293l1.355-8.585a.323.323,0,0,0-.267-.368.439.439,0,0,0-.05,0H75.246a.348.348,0,0,0-.343.293l-.072.462A3.869,3.869,0,0,0,72.082,8.05Zm.073,2.712a2.26,2.26,0,0,1,.7.1A1.967,1.967,0,0,1,74.2,13.1a2.492,2.492,0,0,1-2.5,2.138,2.3,2.3,0,0,1-.7-.1,1.97,1.97,0,0,1-1.35-2.231A2.5,2.5,0,0,1,72.155,10.762Z" fill="#0070e0"/>
    <path id="Path_8128" data-name="Path 8128" d="M46.794,8.35a.261.261,0,0,0-.248.34l2.44,7.572L46.78,19.83a.26.26,0,0,0,.221.4h2.607a.435.435,0,0,0,.371-.21L56.793,8.744a.26.26,0,0,0-.222-.394H53.963a.434.434,0,0,0-.373.213l-2.682,4.528L49.547,8.6a.348.348,0,0,0-.332-.246Z" fill="#003087"/>
    <path id="Path_8129" data-name="Path 8129" d="M80.317,4.4a.347.347,0,0,0-.343.293L78,17.228a.32.32,0,0,0,.267.367.281.281,0,0,0,.05,0h2.345A.347.347,0,0,0,81,17.306L82.978,4.77a.321.321,0,0,0-.267-.367.281.281,0,0,0-.05,0Z" fill="#0070e0"/>
    <path id="Path_8130" data-name="Path 8130" d="M6.99,4.4a.633.633,0,0,0-.626.535l-1.041,6.6A.634.634,0,0,1,5.949,11H9a6.228,6.228,0,0,0,6.149-5.273,5.218,5.218,0,0,0,.06-.684,5.787,5.787,0,0,0-2.7-.643Z" fill="#001c64"/>
    <path id="Path_8131" data-name="Path 8131" d="M15.208,5.043a5.218,5.218,0,0,1-.06.684A6.228,6.228,0,0,1,9,11H5.95a.635.635,0,0,0-.627.535L4.367,17.6l-.6,3.805a.515.515,0,0,0,.428.589A.542.542,0,0,0,4.276,22h3.31a.634.634,0,0,0,.626-.535l.872-5.529A.633.633,0,0,1,9.71,15.4h1.949a6.228,6.228,0,0,0,6.149-5.272A4.835,4.835,0,0,0,15.208,5.043Z" fill="#0070e0"/>
    <path id="Path_8132" data-name="Path 8132" d="M3.23,0A.633.633,0,0,0,2.6.535L.006,17a.516.516,0,0,0,.509.6H4.367l.956-6.065,1.041-6.6A.634.634,0,0,1,6.99,4.4h5.518a5.787,5.787,0,0,1,2.7.643A5.084,5.084,0,0,0,9.848,0Z" fill="#003087"/>
  </g>
</svg>
