<?xml version="1.0" encoding="utf-8"?><svg width="124" height="63" viewBox="0 0 124 63" xmlns="http://www.w3.org/2000/svg" xmlns:xlink="http://www.w3.org/1999/xlink"><svg width="124" height="19" fill="none" viewBox="0 0 124 19" aria-labelledby="aac_logo-title" id="ac_logo" xmlns="http://www.w3.org/2000/svg"><title id="aac_logo-title">Agile Collective logo</title><path d="M117.659 17.653h1.756c1.197 0 1.996-.807 1.996-2.02v-3.352c0-1.253.399-1.616 1.596-1.616V8.483c-1.197 0-1.596-.363-1.596-1.616V3.515c0-1.212-.799-2.02-1.996-2.02h-1.756v2.181h.539c.639 0 .818.222.818.909v3.01c0 1.595.679 1.858 1.477 1.98-.798.12-1.477.383-1.477 1.979v3.01c0 .686-.179.908-.818.908h-.539v2.181zm-6.857-9.197c.18-.97.918-1.939 2.175-1.939 1.317 0 1.936.93 2.155 1.94h-4.33zm2.175 6.424c2.434 0 3.791-1.172 4.569-2.97l-1.995-.747c-.598 1.05-1.297 1.575-2.434 1.575-1.536 0-2.315-1.171-2.374-2.302h6.923v-1.03c0-2.222-1.337-5.03-4.689-5.03-3.451 0-4.828 2.848-4.828 5.252 0 2.403 1.377 5.252 4.828 5.252zm-10.129-.162h2.235l3.412-10.173h-2.494l-2.036 7.083-2.035-7.083h-2.494l3.412 10.173zm-6.418 0h2.474V4.545H96.43v10.173zm1.237-11.486c.918 0 1.596-.707 1.596-1.616 0-.91-.678-1.616-1.596-1.616s-1.596.707-1.596 1.616c0 .909.678 1.616 1.596 1.616zM94.222 14.88c.539 0 1.077-.102 1.636-.364l-.579-2.02c-.339.182-.618.242-.957.242-.838 0-1.317-.403-1.317-1.656V6.686h2.654V4.545h-2.654V.425L90.53 2v2.545h-1.556v2.14h1.556v4.444c0 2.518 1.416 3.75 3.691 3.75zm-9.923 0c2.235 0 3.81-.99 4.57-2.91l-2.216-.908c-.518 1.07-1.237 1.677-2.354 1.677-1.556 0-2.315-1.313-2.315-3.111 0-1.798.759-3.11 2.315-3.11 1.117 0 1.836.605 2.354 1.676l2.215-.91c-.758-1.918-2.334-2.908-4.569-2.908-3.272 0-4.908 2.384-4.908 5.252s1.636 5.252 4.908 5.252zM71.922 8.456c.18-.97.918-1.939 2.175-1.939 1.317 0 1.935.93 2.154 1.94h-4.33zm2.175 6.424c2.434 0 3.79-1.172 4.569-2.97l-1.995-.747c-.599 1.05-1.297 1.575-2.435 1.575-1.536 0-2.314-1.171-2.374-2.302h6.924v-1.03c0-2.222-1.337-5.03-4.69-5.03-3.451 0-4.828 2.848-4.828 5.252 0 2.403 1.377 5.252 4.829 5.252zm-7.941-.162h2.474V.424h-2.474v14.294zm-4.097 0h2.474V.424h-2.474v14.294zm-5.747-1.98c-1.596 0-2.514-1.434-2.514-3.11 0-1.677.918-3.11 2.514-3.11 1.597 0 2.514 1.433 2.514 3.11 0 1.676-.917 3.11-2.514 3.11zm0 2.142c3.233 0 5.108-2.303 5.108-5.252s-1.875-5.252-5.108-5.252c-3.232 0-5.107 2.303-5.107 5.252s1.875 5.252 5.107 5.252zm-9.63 0c2.235 0 3.811-.99 4.57-2.91l-2.216-.908c-.518 1.07-1.237 1.677-2.354 1.677-1.556 0-2.314-1.313-2.314-3.111 0-1.798.758-3.11 2.314-3.11 1.117 0 1.836.605 2.354 1.676l2.215-.91c-.758-1.918-2.334-2.908-4.569-2.908-3.272 0-4.908 2.384-4.908 5.252s1.636 5.252 4.908 5.252zm-6.085 2.773h1.755v-2.181h-.538c-.639 0-.818-.222-.818-.909v-3.01c0-1.595-.679-1.858-1.477-1.979.798-.121 1.477-.384 1.477-1.98V4.586c0-.687.18-.909.818-.909h.538V1.501h-1.755c-1.198 0-1.996.808-1.996 2.02v3.353c0 1.253-.399 1.616-1.596 1.616v2.181c1.197 0 1.596.364 1.596 1.616v3.353c0 1.206.798 2.013 1.996 2.013z" fill="#F35C49"/><path d="M29.33 8.463c.18-.97.918-1.939 2.175-1.939 1.317 0 1.935.93 2.155 1.94h-4.33zm2.175 6.417c2.434 0 3.79-1.172 4.569-2.97l-1.995-.747c-.599 1.05-1.297 1.575-2.434 1.575-1.537 0-2.315-1.171-2.375-2.302h6.924v-1.03c0-2.222-1.337-5.03-4.69-5.03-3.45 0-4.828 2.848-4.828 5.252 0 2.403 1.377 5.252 4.829 5.252zm-8.42-.162h2.474V.424h-2.474v14.294zm-4.104 0h2.474V4.545h-2.474v10.173zm1.237-11.486c.918 0 1.597-.707 1.597-1.616 0-.91-.679-1.616-1.597-1.616-.917 0-1.596.707-1.596 1.616 0 .909.679 1.616 1.596 1.616zm-6.51 13.667c-1.298 0-2.255-.484-2.255-1.454 0-.384.06-.687.22-.93.358.061.737.082 1.156.082h1.357c.938 0 1.616.202 1.616 1.05 0 .909-.918 1.252-2.095 1.252zm-.02-7.715c-.799 0-1.377-.546-1.377-1.374 0-.848.578-1.414 1.376-1.414.799 0 1.377.566 1.377 1.414 0 .835-.579 1.374-1.377 1.374zm.02 9.816c2.234 0 4.568-1.01 4.568-3.514 0-1.96-1.416-2.99-3.531-2.99H12.69c-.599 0-.938-.263-.938-.747 0-.323.18-.586.479-.768.439.142.938.222 1.456.222 2.036 0 3.692-1.252 3.692-3.393 0-.606-.14-1.151-.4-1.616l1.437-.727-.978-1.656-1.895 1.01a4.062 4.062 0 00-1.856-.445c-2.035 0-3.69 1.313-3.69 3.434 0 .848.258 1.555.697 2.1-.738.445-1.237 1.172-1.237 2.142 0 .646.2 1.191.52 1.575-.52.485-.819 1.192-.819 2.02 0 2.222 1.975 3.353 4.55 3.353zM3.71 12.739c-.658 0-1.117-.405-1.117-.99 0-.91.658-1.313 1.716-1.313h1.656v.202c0 1.313-1.138 2.1-2.255 2.1zm-.658 2.14c1.436 0 2.394-.585 3.092-1.454l.26 1.293H8.44v-6.08c0-2.848-1.576-4.262-4.23-4.262-2.015 0-3.512 1.152-3.83 2.828l2.094.485c.32-.848.938-1.172 1.736-1.172.918 0 1.756.425 1.756 1.495v.444H4.21C1.636 8.463 0 9.77 0 11.79c0 2.02 1.337 3.09 3.053 3.09z" fill="#fff"/></svg><svg width="20" height="16" fill="#101820" viewBox="0 0 20 16" id="email" x="72" y="19" xmlns="http://www.w3.org/2000/svg"><title>Email icon</title><path d="M2 0h16a2 2 0 012 2v12a2 2 0 01-2 2H2a2 2 0 01-2-2V2C0 .9.9 0 2 0zm16 3.38V2H2v1.38l8 4 8-4zm0 2.24l-7.55 3.77a1 1 0 01-.9 0L2 5.62V14h16V5.62z"/></svg><svg width="24" height="24" viewBox="0 0 24 24" id="facebook" y="19" xmlns="http://www.w3.org/2000/svg"><title>Facebook logo</title><path d="M22.676 0H1.324C.593 0 0 .593 0 1.324v21.352C0 23.408.593 24 1.324 24h11.494v-9.294H9.689v-3.621h3.129V8.41c0-3.099 1.894-4.785 4.659-4.785 1.325 0 2.464.097 2.796.141v3.24h-1.921c-1.5 0-1.792.721-1.792 1.771v2.311h3.584l-.465 3.63H16.56V24h6.115c.733 0 1.325-.592 1.325-1.324V1.324C24 .593 23.408 0 22.676 0z"/></svg><svg aria-hidden="true" height="20" width="20" viewBox="0 0 576 512" id="keyboard" y="43" xmlns="http://www.w3.org/2000/svg"><title>Keyboard icon</title><path fill="currentColor" d="M528 448H48c-26.51 0-48-21.49-48-48V112c0-26.51 21.49-48 48-48h480c26.51 0 48 21.49 48 48v288c0 26.51-21.49 48-48 48zM128 180v-40c0-6.627-5.373-12-12-12H76c-6.627 0-12 5.373-12 12v40c0 6.627 5.373 12 12 12h40c6.627 0 12-5.373 12-12zm96 0v-40c0-6.627-5.373-12-12-12h-40c-6.627 0-12 5.373-12 12v40c0 6.627 5.373 12 12 12h40c6.627 0 12-5.373 12-12zm96 0v-40c0-6.627-5.373-12-12-12h-40c-6.627 0-12 5.373-12 12v40c0 6.627 5.373 12 12 12h40c6.627 0 12-5.373 12-12zm96 0v-40c0-6.627-5.373-12-12-12h-40c-6.627 0-12 5.373-12 12v40c0 6.627 5.373 12 12 12h40c6.627 0 12-5.373 12-12zm96 0v-40c0-6.627-5.373-12-12-12h-40c-6.627 0-12 5.373-12 12v40c0 6.627 5.373 12 12 12h40c6.627 0 12-5.373 12-12zm-336 96v-40c0-6.627-5.373-12-12-12h-40c-6.627 0-12 5.373-12 12v40c0 6.627 5.373 12 12 12h40c6.627 0 12-5.373 12-12zm96 0v-40c0-6.627-5.373-12-12-12h-40c-6.627 0-12 5.373-12 12v40c0 6.627 5.373 12 12 12h40c6.627 0 12-5.373 12-12zm96 0v-40c0-6.627-5.373-12-12-12h-40c-6.627 0-12 5.373-12 12v40c0 6.627 5.373 12 12 12h40c6.627 0 12-5.373 12-12zm96 0v-40c0-6.627-5.373-12-12-12h-40c-6.627 0-12 5.373-12 12v40c0 6.627 5.373 12 12 12h40c6.627 0 12-5.373 12-12zm-336 96v-40c0-6.627-5.373-12-12-12H76c-6.627 0-12 5.373-12 12v40c0 6.627 5.373 12 12 12h40c6.627 0 12-5.373 12-12zm288 0v-40c0-6.627-5.373-12-12-12H172c-6.627 0-12 5.373-12 12v40c0 6.627 5.373 12 12 12h232c6.627 0 12-5.373 12-12zm96 0v-40c0-6.627-5.373-12-12-12h-40c-6.627 0-12 5.373-12 12v40c0 6.627 5.373 12 12 12h40c6.627 0 12-5.373 12-12z"/></svg><svg width="24" height="24" viewBox="0 0 24 24" id="linkedin" x="24" y="19" xmlns="http://www.w3.org/2000/svg"><title>Linkedin logo</title><path d="M20.447 20.452h-3.554v-5.569c0-1.328-.027-3.037-1.852-3.037-1.853 0-2.136 1.445-2.136 2.939v5.667H9.351V9h3.414v1.561h.046c.477-.9 1.637-1.85 3.37-1.85 3.601 0 4.267 2.37 4.267 5.455v6.286h-.001zM5.337 7.433a2.062 2.062 0 01-2.063-2.065 2.064 2.064 0 112.063 2.065zm1.782 13.019H3.555V9h3.564v11.452zM22.225 0H1.771C.792 0 0 .774 0 1.729v20.542C0 23.227.792 24 1.771 24h20.451C23.2 24 24 23.227 24 22.271V1.729C24 .774 23.2 0 22.222 0h.003z"/></svg><svg width="24" height="24" viewBox="0 0 24 24" id="twitter" x="48" y="19" xmlns="http://www.w3.org/2000/svg"><title>Twitter logo</title><path d="M23.954 4.57a10 10 0 01-2.825.774 4.958 4.958 0 002.163-2.723c-.951.555-2.005.96-3.127 1.184a4.92 4.92 0 00-8.384 4.482C7.691 8.094 4.066 6.13 1.64 3.161a4.822 4.822 0 00-.666 2.475c0 1.71.87 3.213 2.188 4.096a4.904 4.904 0 01-2.228-.616v.061a4.923 4.923 0 003.946 4.827 4.996 4.996 0 01-2.212.085 4.937 4.937 0 004.604 3.417 9.868 9.868 0 01-6.102 2.105c-.39 0-.779-.023-1.17-.067a13.995 13.995 0 007.557 2.21c9.054 0 13.999-7.497 13.999-13.987 0-.209 0-.42-.015-.63a9.936 9.936 0 002.46-2.548l-.047-.02z"/></svg></svg>