<?xml version="1.0" standalone="no"?>
<!DOCTYPE svg PUBLIC "-//W3C//DTD SVG 20010904//EN"
 "http://www.w3.org/TR/2001/REC-SVG-20010904/DTD/svg10.dtd">
<svg version="1.0" xmlns="http://www.w3.org/2000/svg"
 width="1032.000000pt" height="1032.000000pt" viewBox="0 0 1032.000000 1032.000000"
 preserveAspectRatio="xMidYMid meet">
<metadata>
Created by potrace 1.11, written by Peter Selinger 2001-2013
</metadata>
<g transform="translate(0.000000,1032.000000) scale(0.100000,-0.100000)"
fill="#000000" stroke="none">
<path d="M8867 8453 c-1 -1 -117 -4 -257 -8 -140 -3 -273 -7 -295 -8 l-40 -2
-3 -92 c-1 -50 2 -94 7 -97 4 -3 42 -8 82 -11 41 -3 92 -10 114 -15 22 -6 51
-13 65 -16 89 -19 181 -109 197 -194 11 -55 11 -1036 0 -1033 -4 2 -38 18 -76
37 -37 19 -106 47 -152 61 -46 15 -91 29 -99 32 -16 6 -22 7 -115 20 -72 10
-330 9 -400 -1 -104 -15 -242 -51 -310 -81 -124 -54 -203 -97 -280 -155 -60
-44 -144 -119 -174 -154 -9 -10 -23 -26 -32 -35 -144 -151 -288 -456 -333
-706 -3 -16 -8 -41 -11 -54 -26 -132 -26 -506 1 -621 3 -14 7 -38 10 -53 7
-53 49 -203 73 -262 28 -70 99 -213 114 -229 9 -11 17 -25 17 -32 0 -7 3 -14
8 -16 4 -1 21 -23 37 -47 37 -55 166 -187 220 -227 22 -16 42 -31 45 -34 22
-22 232 -126 270 -134 14 -3 50 -12 80 -20 30 -9 71 -18 90 -21 20 -3 47 -8
60 -11 31 -6 275 -6 313 1 15 3 37 7 50 9 70 12 100 20 176 47 140 49 287 139
383 233 l55 54 -1 -164 -1 -164 155 5 c134 4 527 14 730 19 l65 2 -1 87 c0 47
-2 88 -5 91 -2 2 -44 7 -94 10 -49 4 -97 8 -105 10 -8 2 -34 7 -58 11 -23 4
-45 12 -48 16 -3 5 -10 7 -15 4 -5 -4 -9 -1 -9 5 0 6 -4 9 -8 6 -13 -8 -67 47
-82 83 -11 28 -14 346 -14 1947 l0 1914 -199 -3 c-109 -1 -199 -3 -200 -4z
m-617 -1518 c25 -3 68 -14 95 -23 28 -9 52 -17 55 -17 19 -5 93 -46 135 -74
60 -41 144 -125 182 -182 l28 -43 0 -904 0 -904 -40 -40 c-63 -62 -71 -68 -83
-68 -7 0 -12 -4 -12 -10 0 -5 -7 -10 -15 -10 -8 0 -15 -4 -15 -10 0 -5 -5 -10
-10 -10 -6 0 -27 -11 -48 -23 -37 -24 -121 -56 -197 -75 -195 -51 -444 -16
-619 86 -75 44 -182 149 -225 223 -76 127 -124 268 -155 459 -27 164 -27 618
0 661 5 8 3 9 -6 4 -8 -5 -11 -4 -6 3 6 9 17 61 32 147 26 149 119 377 203
495 103 145 265 270 384 296 39 9 52 12 52 14 0 1 23 4 50 7 28 2 51 6 53 7 4
4 111 -2 162 -9z"/>
<path d="M1210 8425 c-114 -30 -213 -120 -246 -223 -21 -67 -23 -208 -2 -262
76 -203 309 -290 503 -188 73 38 154 140 170 214 45 202 -27 365 -193 441 -61
29 -163 37 -232 18z"/>
<path d="M2935 8427 c-109 -33 -191 -101 -234 -193 -48 -101 -46 -242 5 -344
26 -50 101 -122 159 -150 43 -21 64 -24 150 -24 89 0 106 3 158 28 65 32 133
102 168 173 19 40 24 66 26 153 2 98 0 109 -27 166 -46 95 -127 166 -215 187
-56 13 -154 16 -190 4z"/>
<path d="M5128 7135 c-2 -1 -34 -5 -73 -9 -116 -10 -194 -28 -310 -69 -94 -33
-251 -119 -312 -172 -95 -80 -146 -129 -183 -174 -25 -29 -50 -59 -55 -65 -6
-6 -26 -36 -45 -66 -19 -30 -37 -57 -40 -60 -4 -3 -27 -48 -53 -101 -68 -140
-121 -308 -143 -459 -3 -19 -8 -46 -11 -60 -7 -33 -12 -393 -6 -403 3 -5 7
-27 9 -50 6 -78 14 -132 29 -192 9 -33 17 -69 20 -80 26 -112 120 -316 198
-429 56 -82 195 -222 283 -285 40 -28 75 -51 79 -51 4 0 19 -9 33 -19 15 -10
30 -19 34 -20 5 -1 25 -8 45 -17 135 -57 158 -64 293 -90 148 -28 398 -32 510
-9 14 3 41 8 60 11 100 17 284 93 390 163 95 62 222 175 280 248 69 86 90 114
121 158 19 28 46 69 59 93 l24 43 -58 56 -59 57 -51 -59 c-86 -99 -209 -218
-266 -257 -14 -10 -44 -31 -68 -48 -35 -25 -153 -90 -172 -95 -3 -1 -12 -5
-20 -8 -105 -43 -275 -62 -415 -45 -89 11 -265 62 -265 78 0 4 -11 11 -25 14
-62 16 -199 131 -281 237 -67 88 -155 277 -179 387 -3 12 -7 31 -10 42 -27
109 -38 198 -39 335 l-1 100 927 0 c510 0 929 3 932 6 16 16 5 300 -15 387 -6
26 -12 58 -14 72 -6 37 -40 147 -65 210 -26 67 -100 204 -111 208 -5 2 -9 8
-9 14 0 26 -111 152 -210 238 -35 31 -156 110 -167 110 -5 0 -14 5 -21 12 -6
6 -26 17 -44 23 -112 42 -153 55 -191 60 -23 4 -44 8 -48 11 -17 10 -281 27
-291 19z m126 -200 c57 -7 206 -62 206 -76 0 -5 6 -9 13 -9 28 0 187 -175 187
-206 0 -4 6 -15 13 -23 25 -31 70 -161 93 -273 14 -69 20 -292 10 -343 -3 -11
-5 -23 -5 -27 -1 -3 -63 -7 -138 -8 -76 -1 -219 -3 -318 -5 -99 -2 -335 -6
-524 -10 l-343 -6 6 58 c4 32 9 84 12 115 4 48 22 143 49 265 17 77 92 251
123 286 8 9 12 17 9 17 -4 0 1 8 11 19 9 10 31 34 47 52 79 87 186 148 295
166 116 19 153 20 254 8z"/>
<path d="M1549 7106 c-2 -3 -126 -7 -274 -11 -492 -11 -647 -15 -654 -19 -5
-3 -6 -149 -2 -189 1 -4 13 -7 29 -6 26 1 130 -8 162 -15 78 -16 118 -35 170
-82 77 -70 73 -14 74 -1129 1 -544 -2 -1008 -7 -1030 -4 -22 -18 -51 -30 -63
-20 -21 -69 -53 -89 -58 -5 -1 -9 -2 -10 -4 -3 -2 -13 -4 -63 -14 -16 -4 -75
-9 -130 -12 -55 -3 -105 -7 -110 -9 -8 -2 -13 -155 -6 -185 1 -4 1336 -5 1391
-1 12 1 15 18 14 91 0 50 -3 92 -5 94 -2 2 -53 7 -114 10 -183 10 -270 40
-310 106 -20 35 -20 46 -21 1277 0 683 -2 1245 -5 1248 -3 3 -8 3 -10 1z"/>
<path d="M3269 7106 c-2 -3 -119 -7 -259 -10 -589 -14 -674 -17 -678 -21 -3
-3 -5 -93 -2 -174 0 -15 7 -19 33 -19 63 -1 163 -13 208 -27 95 -28 148 -69
183 -145 20 -45 20 -56 21 -1063 1 -887 -1 -1022 -14 -1050 -41 -86 -142 -121
-363 -126 l-68 -1 0 -97 0 -98 697 1 c384 1 700 2 704 3 3 1 5 44 5 96 l-1 95
-60 1 c-249 5 -363 49 -382 148 -3 20 -7 586 -7 1258 -1 672 -4 1224 -7 1227
-3 3 -8 4 -10 2z"/>
<path d="M16 4160 c3 -91 7 -183 9 -205 2 -22 6 -67 9 -100 3 -33 7 -76 10
-95 3 -19 8 -57 11 -85 11 -94 63 -273 87 -302 6 -7 8 -13 4 -13 -10 0 72
-128 125 -195 53 -67 146 -159 199 -195 19 -13 37 -27 40 -30 36 -43 339 -173
435 -187 17 -2 37 -6 45 -9 8 -3 42 -8 75 -10 33 -3 87 -8 120 -11 33 -3 746
-8 1585 -9 1481 -3 1619 -6 1655 -34 6 -4 22 -10 38 -14 58 -14 219 -102 274
-150 7 -6 39 -33 71 -61 99 -85 231 -255 286 -369 45 -95 58 -124 60 -140 1
-8 5 -19 9 -22 4 -4 7 -19 7 -33 0 -23 2 -24 15 -10 9 8 18 25 20 37 3 12 7
32 10 45 9 41 50 152 57 155 5 2 8 9 8 16 0 24 68 151 114 214 123 166 306
288 491 327 28 6 214 39 240 42 64 8 1721 8 1733 -1 7 -5 12 -5 12 0 0 5 52 9
115 9 63 0 115 -4 115 -8 0 -5 5 -5 11 -1 17 10 212 11 227 1 6 -5 12 -6 12
-1 0 5 52 9 115 9 63 0 115 -4 115 -8 0 -5 5 -5 10 -2 6 4 109 9 228 11 119 2
233 5 252 8 68 8 197 27 221 31 220 42 279 58 386 106 24 10 45 19 48 19 9 0
156 91 183 114 56 46 149 146 183 197 51 77 73 113 72 119 -1 3 11 28 27 55
16 28 32 66 35 85 3 18 15 61 25 94 11 34 22 77 25 96 3 19 8 46 10 60 3 14 7
45 10 69 2 24 7 51 10 61 3 10 7 120 9 244 4 243 -3 277 -37 168 -10 -31 -26
-76 -37 -100 -11 -23 -20 -46 -21 -50 -1 -4 -9 -18 -18 -32 -10 -14 -20 -32
-23 -40 -20 -54 -180 -238 -263 -302 -16 -12 -31 -26 -33 -30 -2 -5 -8 -8 -14
-8 -5 0 -24 -10 -41 -23 -68 -50 -205 -111 -299 -133 -5 -1 -9 -2 -10 -4 -2
-1 -10 -3 -18 -5 -8 -1 -44 -11 -80 -20 -36 -10 -78 -19 -95 -22 -16 -3 -655
-6 -1420 -8 -764 -2 -1417 -5 -1450 -9 -88 -8 -167 -17 -195 -22 -14 -2 -45
-7 -70 -10 -25 -3 -53 -7 -62 -10 -10 -3 -28 -7 -40 -10 -13 -2 -54 -13 -93
-24 -38 -12 -77 -23 -85 -25 -48 -11 -239 -99 -250 -115 -3 -4 -19 -14 -36
-23 -30 -16 -156 -134 -205 -193 -66 -79 -152 -259 -203 -426 -16 -53 -32 -88
-40 -88 -11 0 -43 86 -46 122 -1 7 -14 41 -48 123 -80 190 -188 342 -309 432
-21 15 -40 30 -43 33 -3 3 -35 24 -71 47 -69 43 -185 94 -323 142 -78 27 -105
34 -196 47 -19 3 -681 7 -1470 8 -1287 3 -1542 6 -1622 21 -13 3 -41 7 -63 10
-22 3 -49 7 -60 9 -11 3 -54 12 -95 20 -41 9 -82 19 -90 23 -8 3 -19 7 -25 8
-51 12 -185 74 -242 112 -139 92 -230 197 -346 396 -51 89 -69 126 -96 197
l-21 55 6 -165z"/>
</g>
</svg>
