<?xml version="1.0" encoding="UTF-8" standalone="no"?>
<svg width="432px" height="506px" viewBox="0 0 432 506" version="1.1" xmlns="http://www.w3.org/2000/svg" xmlns:xlink="http://www.w3.org/1999/xlink" xmlns:sketch="http://www.bohemiancoding.com/sketch/ns">
    <!-- Generator: Sketch 3.3.3 (12072) - http://www.bohemiancoding.com/sketch -->
    <title>android</title>
    <desc>Created with Sketch.</desc>
    <defs></defs>
    <g id="Page-1" stroke="none" stroke-width="1" fill="none" fill-rule="evenodd" sketch:type="MSPage">
        <g id="android" sketch:type="MSLayerGroup" fill="#4A4A4A">
            <g id="Group" sketch:type="MSShapeGroup">
                <g id="Shape">
                    <path d="M31.541,164.715 L30.247,164.715 C13.659,164.715 0.134,178.283 0.134,194.828 L0.134,325.935 C0.134,342.545 13.659,356.069 30.247,356.069 L31.563,356.069 C48.151,356.069 61.676,342.501 61.676,325.935 L61.676,194.827 C61.654,178.283 48.108,164.715 31.541,164.715 L31.541,164.715 Z"></path>
                    <path d="M76.085,376.54 C76.085,391.769 88.531,404.172 103.76,404.172 L133.334,404.172 L133.334,474.989 C133.334,491.62 146.902,505.145 163.447,505.145 L164.741,505.145 C181.351,505.145 194.897,491.599 194.897,474.989 L194.897,404.172 L236.227,404.172 L236.227,474.989 C236.227,491.62 249.838,505.145 266.383,505.145 L267.656,505.145 C284.265,505.145 297.79,491.599 297.79,474.989 L297.79,404.172 L327.385,404.172 C342.592,404.172 355.039,391.769 355.039,376.54 L355.039,169.525 L76.085,169.525 L76.085,376.54 L76.085,376.54 Z"></path>
                    <path d="M285.041,43.983 L308.532,7.723 C310.042,5.436 309.373,2.309 307.065,0.82 C304.779,-0.69 301.651,-0.064 300.162,2.287 L275.809,39.799 C257.539,32.314 237.133,28.108 215.583,28.108 C194.012,28.108 173.649,32.314 155.336,39.799 L131.026,2.287 C129.538,-0.064 126.388,-0.69 124.08,0.82 C121.772,2.308 121.103,5.436 122.613,7.723 L146.125,43.983 C103.738,64.756 75.157,103.907 75.157,148.817 C75.157,151.578 75.33,154.296 75.567,156.992 L355.62,156.992 C355.857,154.296 356.008,151.578 356.008,148.817 C356.009,103.907 327.406,64.756 285.041,43.983 L285.041,43.983 Z M150.655,108.911 C143.213,108.911 137.173,102.914 137.173,95.451 C137.173,87.988 143.213,82.012 150.655,82.012 C158.14,82.012 164.137,87.987 164.137,95.451 C164.137,102.915 158.097,108.911 150.655,108.911 L150.655,108.911 Z M280.49,108.911 C273.048,108.911 267.008,102.914 267.008,95.451 C267.008,87.988 273.048,82.012 280.49,82.012 C287.953,82.012 293.95,87.987 293.95,95.451 C293.95,102.914 287.953,108.911 280.49,108.911 L280.49,108.911 Z"></path>
                    <path d="M400.876,164.715 L399.625,164.715 C383.037,164.715 369.469,178.283 369.469,194.828 L369.469,325.935 C369.469,342.545 383.059,356.069 399.625,356.069 L400.898,356.069 C417.507,356.069 431.011,342.501 431.011,325.935 L431.011,194.827 C431.011,178.283 417.464,164.715 400.876,164.715 L400.876,164.715 Z"></path>
                </g>
            </g>
        </g>
    </g>
</svg>