<svg viewBox="0 0 20 20" xmlns="http://www.w3.org/2000/svg"><path d="M3.749 3.081a.638.638 0 0 0-.672.672l.113 3.693a.738.738 0 0 0 .218.497.738.738 0 0 0 .497.218.653.653 0 0 0 .484-.188.653.653 0 0 0 .188-.485l-.063-2.023 3.018 3.018a.737.737 0 0 0 .496.218.652.652 0 0 0 .483-.188.652.652 0 0 0 .188-.484.737.737 0 0 0-.217-.496L5.465 4.517l2.025.061a.653.653 0 0 0 .484-.188.653.653 0 0 0 .188-.484.738.738 0 0 0-.218-.497.738.738 0 0 0-.496-.217l-3.699-.11ZM16.03 16.698a.67.67 0 0 0 .264-.045.638.638 0 0 0 .408-.627l-.113-3.693a.738.738 0 0 0-.218-.496.738.738 0 0 0-.496-.218.652.652 0 0 0-.484.188.653.653 0 0 0-.189.484l.063 2.023-3.017-3.018a.737.737 0 0 0-.496-.217.653.653 0 0 0-.484.188.652.652 0 0 0-.188.483.737.737 0 0 0 .218.496l3.016 3.016-2.024-.061a.653.653 0 0 0-.485.188.653.653 0 0 0-.188.485.738.738 0 0 0 .218.496.738.738 0 0 0 .497.218l3.698.11Zm.668-12.949a.67.67 0 0 0-.045-.264.636.636 0 0 0-.627-.408l-3.693.113a.738.738 0 0 0-.496.218.738.738 0 0 0-.218.497.653.653 0 0 0 .188.484.65.65 0 0 0 .484.188l2.023-.063-3.018 3.018a.737.737 0 0 0-.217.496.652.652 0 0 0 .188.483.65.65 0 0 0 .483.188.737.737 0 0 0 .496-.217l3.016-3.017-.061 2.025a.653.653 0 0 0 .188.484c.126.126.3.194.485.188a.738.738 0 0 0 .496-.218.738.738 0 0 0 .218-.496l.11-3.7ZM3.081 16.03a.638.638 0 0 0 .672.672l3.693-.113a.738.738 0 0 0 .497-.218.738.738 0 0 0 .218-.496.653.653 0 0 0-.188-.484.653.653 0 0 0-.485-.189l-2.023.063 3.018-3.017a.737.737 0 0 0 .218-.496.652.652 0 0 0-.188-.484.653.653 0 0 0-.484-.188.737.737 0 0 0-.496.218l-3.016 3.016.061-2.024a.653.653 0 0 0-.188-.485.653.653 0 0 0-.484-.188.738.738 0 0 0-.497.218.738.738 0 0 0-.217.497l-.11 3.698Z"/></svg>
