<?xml version="1.0" encoding="UTF-8" standalone="no"?>
<!DOCTYPE svg PUBLIC "-//W3C//DTD SVG 1.1//EN" "http://www.w3.org/Graphics/SVG/1.1/DTD/svg11.dtd">
<svg width="100%" height="100%" viewBox="0 0 36 36" version="1.1" xmlns="http://www.w3.org/2000/svg" xmlns:xlink="http://www.w3.org/1999/xlink" xml:space="preserve" xmlns:serif="http://www.serif.com/" style="fill-rule:evenodd;clip-rule:evenodd;stroke-linejoin:round;stroke-miterlimit:2;">
    <g transform="matrix(1,0,0,1.25,-0.0709769,-4.5)">
        <g transform="matrix(3.86797,0,0,10.7939,-11.0503,-211.743)">
            <rect x="3.516" y="20.173" width="0.273" height="2.223" style="fill:rgb(85,86,91);"/>
        </g>
        <g transform="matrix(3.86797,0,0,10.7939,-8.91089,-211.743)">
            <rect x="3.516" y="20.173" width="0.273" height="2.223" style="fill:rgb(85,86,91);"/>
        </g>
        <g transform="matrix(3.86797,0,0,10.7939,1.93028,-211.743)">
            <rect x="3.516" y="20.173" width="0.273" height="2.223" style="fill:rgb(85,86,91);"/>
        </g>
        <g transform="matrix(3.86797,0,0,10.7939,4.93145,-211.743)">
            <rect x="3.516" y="20.173" width="0.273" height="2.223" style="fill:rgb(85,86,91);"/>
        </g>
        <g transform="matrix(3.86797,0,0,10.7939,6.93223,-211.743)">
            <rect x="3.516" y="20.173" width="0.273" height="2.223" style="fill:rgb(85,86,91);"/>
        </g>
        <g transform="matrix(3.86797,0,0,10.7939,18.9369,-211.743)">
            <rect x="3.516" y="20.173" width="0.273" height="2.223" style="fill:rgb(85,86,91);"/>
        </g>
        <g transform="matrix(7.33699,0,0,10.7939,2.73783,-211.743)">
            <rect x="3.516" y="20.173" width="0.273" height="2.223" style="fill:rgb(85,86,91);"/>
        </g>
        <g transform="matrix(7.33699,0,0,10.7939,-15.2692,-211.743)">
            <rect x="3.516" y="20.173" width="0.273" height="2.223" style="fill:rgb(85,86,91);"/>
        </g>
        <g transform="matrix(11.0055,0,0,10.7939,-32.0301,-211.743)">
            <rect x="3.516" y="20.173" width="0.273" height="2.223" style="fill:rgb(85,86,91);"/>
        </g>
        <g transform="matrix(11.0055,0,0,10.7939,-15.163,-211.743)">
            <rect x="3.516" y="20.173" width="0.273" height="2.223" style="fill:rgb(85,86,91);"/>
        </g>
    </g>
</svg>
